<svg id="Capa_1" data-name="Capa 1" xmlns="http://www.w3.org/2000/svg" viewBox="0 0 356.28 356.28"><defs><style>.cls-1{fill:#3879e0;}.cls-2{opacity:0.41;}.cls-3,.cls-4,.cls-9{fill:#c5d9ff;}.cls-4{opacity:0.31;}.cls-5{fill:#ecf1f7;}.cls-6{fill:#243762;}.cls-12,.cls-7{fill:#fff;}.cls-8{fill:#af9cda;}.cls-9{opacity:0.43;}.cls-10{opacity:0.26;}.cls-11{fill:#89bd29;}.cls-12{opacity:0.25;}</style></defs><title>imagenLogin</title><circle class="cls-1" cx="178.14" cy="178.14" r="178.14"/><g class="cls-2"><path class="cls-3" d="M804.16,403.84a85.83,85.83,0,0,0-39.09-76.49,18.18,18.18,0,0,1-8.15-13.25c0-.29-.06-.59-.1-.88-4.47-35.85-38-61-73.66-56.17-34.13,4.64-58.7,22.68-55.07,57.41,0,.17,0,.41,0,.71a16.57,16.57,0,0,1-16.25,17.64q-3,.07-6,.39a74.25,74.25,0,0,0-42.24,128.58H775.93C792.07,446.33,803.22,424.91,804.16,403.84Z" transform="translate(-505.15 -206.27)"/></g><path class="cls-4" d="M592.69,304.44a8.78,8.78,0,1,1-8.78-8.78A8.78,8.78,0,0,1,592.69,304.44Z" transform="translate(-505.15 -206.27)"/><circle class="cls-4" cx="268.45" cy="64.72" r="7.71"/><path class="cls-4" d="M815,346.1a5.25,5.25,0,1,1-5.25-5.24A5.25,5.25,0,0,1,815,346.1Z" transform="translate(-505.15 -206.27)"/><path class="cls-4" d="M524.27,413.26A5.25,5.25,0,1,1,519,408,5.25,5.25,0,0,1,524.27,413.26Z" transform="translate(-505.15 -206.27)"/><path class="cls-3" d="M784.7,412.37a73.2,73.2,0,0,0-33.34-65.24,15.52,15.52,0,0,1-7-11.3c0-.25,0-.5-.08-.75-3.82-30.57-32.39-52.05-62.83-47.91-29.11,4-50.06,19.35-47,49,0,.14,0,.34.05.6a14.14,14.14,0,0,1-13.86,15.05q-2.54.06-5.1.33a63.32,63.32,0,0,0-36,109.66h181C774.39,448.61,783.9,430.34,784.7,412.37Z" transform="translate(-505.15 -206.27)"/><path class="cls-5" d="M764.62,440.72H590v-117a3.55,3.55,0,0,1,3.55-3.54H761.07a3.55,3.55,0,0,1,3.55,3.54Z" transform="translate(-505.15 -206.27)"/><path class="cls-6" d="M765.07,441.18H589.55V323.72a4,4,0,0,1,4-4H761.07a4,4,0,0,1,4,4Zm-174.62-.91H764.17V323.72a3.1,3.1,0,0,0-3.1-3.09H593.54a3.1,3.1,0,0,0-3.09,3.09Z" transform="translate(-505.15 -206.27)"/><rect class="cls-5" x="160.96" y="227.79" width="22.42" height="1.79"/><path class="cls-6" d="M689,436.3H665.65v-2.69H689Zm-22.42-.9h21.52v-.89H666.55Z" transform="translate(-505.15 -206.27)"/><path class="cls-5" d="M678.67,325.16a1.36,1.36,0,1,1-1.36-1.29A1.32,1.32,0,0,1,678.67,325.16Z" transform="translate(-505.15 -206.27)"/><path class="cls-6" d="M677.31,326.91a1.75,1.75,0,1,1,1.81-1.75A1.78,1.78,0,0,1,677.31,326.91Zm0-2.59a.84.84,0,1,0,.91.84A.88.88,0,0,0,677.31,324.32Z" transform="translate(-505.15 -206.27)"/><path class="cls-6" d="M783.12,461.89H571.25c-2.3,0-4.16-1.25-4.16-2.78v-4.38c0-.44.52-.79,1.17-.79h218c.65,0,1.17.35,1.17.79V459C787.46,460.59,785.52,461.89,783.12,461.89Z" transform="translate(-505.15 -206.27)"/><path class="cls-6" d="M783.12,462.34H571.25c-2.59,0-4.62-1.42-4.62-3.23v-4.38c0-.7.72-1.24,1.63-1.24h218c.91,0,1.62.54,1.62,1.24V459C787.91,460.87,785.81,462.34,783.12,462.34ZM568.26,454.4c-.45,0-.72.21-.72.33v4.38c0,1.26,1.7,2.33,3.71,2.33H783.12c2.11,0,3.89-1.12,3.89-2.45v-4.26c0-.12-.27-.33-.72-.33Z" transform="translate(-505.15 -206.27)"/><rect class="cls-7" x="92.57" y="123.48" width="159.18" height="101.92" rx="3.88"/><path class="cls-6" d="M753,432.1H601.6a4.31,4.31,0,0,1-4.31-4.31V333.63a4.31,4.31,0,0,1,4.31-4.31H753a4.31,4.31,0,0,1,4.31,4.31v94.16A4.31,4.31,0,0,1,753,432.1ZM601.6,330.18a3.46,3.46,0,0,0-3.45,3.45v94.16a3.46,3.46,0,0,0,3.45,3.45H753a3.46,3.46,0,0,0,3.45-3.45V333.63a3.46,3.46,0,0,0-3.45-3.45Z" transform="translate(-505.15 -206.27)"/><path class="cls-8" d="M756.2,336.57v-2.69a3.71,3.71,0,0,0-3.85-3.55H602.09a3.71,3.71,0,0,0-3.85,3.55v2.7Z" transform="translate(-505.15 -206.27)"/><path class="cls-7" d="M742.85,333.63a.9.9,0,1,1-.89-.9A.9.9,0,0,1,742.85,333.63Z" transform="translate(-505.15 -206.27)"/><circle class="cls-7" cx="240.4" cy="127.36" r="0.9"/><circle class="cls-7" cx="243.98" cy="127.36" r="0.9"/><rect class="cls-9" x="106.12" y="141.54" width="130.8" height="70.7"/><path class="cls-5" d="M590.67,440.38l-22.91,13.46h0l218.53-.09-21.11-13.31Z" transform="translate(-505.15 -206.27)"/><path class="cls-6" d="M567.88,454.3h-.12v-.46l-.23-.38,23-13.53h.12l174.64.05,22.54,14.22Zm22.92-13.47-21.38,12.56,215.31-.09-19.68-12.41Z" transform="translate(-505.15 -206.27)"/><g class="cls-10"><polygon class="cls-5" points="114.47 234.11 99.24 243.06 99.24 243.06 244.52 243 230.49 234.15 114.47 234.11"/><path class="cls-6" d="M602.72,449.78l16.77-9.85,116.27,0,15.47,9.75Zm17-8.95-13.69,8.05,142.05-.06-12.6-7.95Z" transform="translate(-505.15 -206.27)"/></g><path class="cls-6" d="M656.89,377.27a1.36,1.36,0,0,1-1.36-1.36,5.42,5.42,0,1,0-10.83,0,1.36,1.36,0,1,1-2.71,0,8.13,8.13,0,1,1,16.25,0A1.35,1.35,0,0,1,656.89,377.27Z" transform="translate(-505.15 -206.27)"/><path class="cls-6" d="M711.13,377.27a1.36,1.36,0,0,1-1.35-1.36,5.42,5.42,0,1,0-10.84,0,1.36,1.36,0,1,1-2.71,0,8.13,8.13,0,1,1,16.26,0A1.36,1.36,0,0,1,711.13,377.27Z" transform="translate(-505.15 -206.27)"/><path class="cls-6" d="M677.21,406.19a22.77,22.77,0,0,1-22.63-22.14,1.81,1.81,0,0,1,1.82-1.85h43.45v1.35A22.66,22.66,0,0,1,677.21,406.19Zm-19.88-21.28a19.93,19.93,0,0,0,39.77,0Z" transform="translate(-505.15 -206.27)"/><path class="cls-6" d="M756.24,337.05h-122a.47.47,0,0,1,0-.94h122a.47.47,0,0,1,0,.94Z" transform="translate(-505.15 -206.27)"/><path class="cls-6" d="M732.15,320.53V305c0-8.27,6.09-15,13.58-15h11c7.49,0,13.58,6.73,13.58,15v15.52c0,8.27-6.09,15-13.58,15h-11C738.24,335.53,732.15,328.8,732.15,320.53Zm13.58-23.45c-4,0-7.18,3.55-7.18,7.93v15.52c0,4.38,3.22,7.93,7.18,7.93h11c4,0,7.18-3.55,7.18-7.93V305c0-4.38-3.22-7.93-7.18-7.93Z" transform="translate(-505.15 -206.27)"/><path class="cls-7" d="M756.7,336h-11c-7.72,0-14-6.92-14-15.43V305c0-8.51,6.29-15.43,14-15.43h11c7.73,0,14,6.92,14,15.43v15.52C770.71,329,764.43,336,756.7,336Zm-11-45.52c-7.25,0-13.15,6.53-13.15,14.57v15.52c0,8,5.9,14.57,13.15,14.57h11c7.25,0,13.15-6.53,13.15-14.57V305c0-8-5.9-14.57-13.15-14.57Zm11,38.45h-11c-4.2,0-7.61-3.75-7.61-8.36V305c0-4.61,3.41-8.36,7.61-8.36h11c4.2,0,7.61,3.75,7.61,8.36v15.52C764.31,325.14,760.9,328.89,756.7,328.89Zm-11-31.38c-3.72,0-6.75,3.36-6.75,7.5v15.52c0,4.14,3,7.5,6.75,7.5h11c3.73,0,6.75-3.36,6.75-7.5V305c0-4.14-3-7.5-6.75-7.5Z" transform="translate(-505.15 -206.27)"/><rect class="cls-11" x="218.34" y="108.99" width="55.46" height="46.04" rx="6.46"/><path class="cls-6" d="M773.65,361.73H758.07a.43.43,0,1,1,0-.86h15.58a4.88,4.88,0,0,0,4.87-4.87V325.11a.43.43,0,0,1,.86,0V356A5.74,5.74,0,0,1,773.65,361.73Z" transform="translate(-505.15 -206.27)"/><rect class="cls-12" x="222.13" y="115.28" width="47.88" height="35.65" rx="6.46"/><path class="cls-6" d="M744.74,334.29a6.48,6.48,0,1,1,8.35,6.16v8.38h-3.75v-8.38A6.44,6.44,0,0,1,744.74,334.29Z" transform="translate(-505.15 -206.27)"/><path class="cls-6" d="M802.9,462.5H552.15a.72.72,0,0,1-.72-.72.73.73,0,0,1,.72-.73H802.9a.73.73,0,0,1,.72.73A.72.72,0,0,1,802.9,462.5Z" transform="translate(-505.15 -206.27)"/><path class="cls-8" d="M789.26,320.76a10.43,10.43,0,1,1-10.43-10.43A10.43,10.43,0,0,1,789.26,320.76Z" transform="translate(-505.15 -206.27)"/><path class="cls-6" d="M769,330.64a.45.45,0,0,1,.63-.64,13.25,13.25,0,1,0,0-18.74.45.45,0,0,1-.63,0,.45.45,0,0,1,0-.64,14.16,14.16,0,1,1,0,20Z" transform="translate(-505.15 -206.27)"/><path class="cls-7" d="M778.68,326.43a1.4,1.4,0,0,1-1-.36,1.16,1.16,0,0,1-.39-.88,1.12,1.12,0,0,1,.39-.88,1.44,1.44,0,0,1,1-.35,1.42,1.42,0,0,1,1,.35,1.16,1.16,0,0,1,.38.88,1.13,1.13,0,0,1-.38.89A1.36,1.36,0,0,1,778.68,326.43Zm1.19-9.88-.22,5.41a1,1,0,0,1-1,1h0a1,1,0,0,1-1-1l-.2-5.41a1,1,0,0,1,1-1h.42A1,1,0,0,1,779.87,316.55Z" transform="translate(-505.15 -206.27)"/></svg>