<svg xmlns="http://www.w3.org/2000/svg" xmlns:xlink="http://www.w3.org/1999/xlink" viewBox="0 0 1363.14 769.56"><defs><style>.cls-1{isolation:isolate;}.cls-2{fill:url(#Degradado_sin_nombre_21);}.cls-3{opacity:0.1;mix-blend-mode:multiply;fill:url(#radial-gradient);}</style><radialGradient id="Degradado_sin_nombre_21" cx="577.55" cy="385.08" r="775.84" gradientTransform="translate(-0.46 -0.3) scale(1.18 1)" gradientUnits="userSpaceOnUse"><stop offset="0" stop-color="#006faa"/><stop offset="0.36" stop-color="#036ca9"/><stop offset="0.66" stop-color="#0e61a4"/><stop offset="0.94" stop-color="#1f509c"/><stop offset="1" stop-color="#244b9a"/></radialGradient><radialGradient id="radial-gradient" cx="577.55" cy="385.08" r="490.5" gradientTransform="translate(-0.34) scale(1.18 1)" gradientUnits="userSpaceOnUse"><stop offset="0" stop-color="#dbc7e7"/><stop offset="0.25" stop-color="#bfb1d9"/><stop offset="0.52" stop-color="#a89fcd"/><stop offset="0.78" stop-color="#9a94c6"/><stop offset="1" stop-color="#9590c4"/></radialGradient></defs><title>fondo</title><g class="cls-1"><g id="Capa_1" data-name="Capa 1"><rect class="cls-2" width="1363.14" height="769.56"/><path class="cls-3" d="M958.78,769.85h372.6c10.7-15.12,21.13-30.42,31.88-45.44V257.56c-16,3.07-31.18,6.81-44,9.66-98.85,22-191.82,61.44-285.73,94.95-42.93,15.32-125.65,51.56-139.42-9.29-16.26-71.83,56.81-140.57,109.28-187.6C1065.18,109.92,1138.63,64,1197.35,6.49q3-2.94,6.25-6.19H665.29c-3.33,2-6.66,4-9.94,6.1C573.28,58.28,507.21,112.65,411.9,159c-47.57,23.14-143.6,77.21-196.16,30C161.93,140.69,248.4,55.9,275.79,15.28c2.94-4.36,6.62-9.41,10.71-15H.12V436.79c68.26-19.17,250.82-54.64,259.41,27.27,4.64,44.21-74.81,96.79-103.9,126.47-52.23,53.29-93.37,113-131.45,173.91-1.11,1.78-2.3,3.59-3.52,5.41H348.39q15.27-8.9,30.68-17.45c114.16-63.08,230.67-122.9,352-175.84,68.61-29.94,169.52-71.94,250.47-57.09,56.74,10.41,33.58,63.6,24.81,101C994.82,669.5,974.56,719.38,958.78,769.85Z" transform="translate(-0.12 -0.3)"/></g></g></svg>