<svg id="Capa_1" data-name="Capa 1" xmlns="http://www.w3.org/2000/svg" xmlns:xlink="http://www.w3.org/1999/xlink" viewBox="0 0 1366 768"><defs><style>.cls-1{fill:none;}.cls-2{clip-path:url(#clip-path);}.cls-3{fill:url(#Degradado_sin_nombre_36);}.cls-4{fill:url(#Degradado_sin_nombre_3);}.cls-5{fill:url(#Degradado_sin_nombre_3-2);}.cls-6{fill:url(#Degradado_sin_nombre_3-3);}.cls-7{fill:url(#Degradado_sin_nombre_3-4);}.cls-8{fill:url(#Degradado_sin_nombre_3-5);}.cls-9{fill:url(#Degradado_sin_nombre_3-6);}.cls-10{fill:url(#Degradado_sin_nombre_3-7);}.cls-11{fill:url(#Degradado_sin_nombre_3-8);}.cls-12{fill:url(#Degradado_sin_nombre_3-9);}.cls-13{fill:url(#Degradado_sin_nombre_3-10);}.cls-14{fill:url(#Degradado_sin_nombre_3-11);}.cls-15{fill:url(#Degradado_sin_nombre_3-12);}.cls-16{fill:url(#Degradado_sin_nombre_3-13);}.cls-17{fill:url(#Degradado_sin_nombre_3-14);}.cls-18{fill:url(#Degradado_sin_nombre_3-15);}.cls-19{fill:url(#Degradado_sin_nombre_3-16);}.cls-20{fill:url(#Degradado_sin_nombre_3-17);}.cls-21{fill:url(#Degradado_sin_nombre_3-18);}.cls-22{fill:url(#Degradado_sin_nombre_3-19);}.cls-23{fill:url(#Degradado_sin_nombre_3-20);}.cls-24{fill:url(#Degradado_sin_nombre_3-21);}.cls-25{fill:url(#Degradado_sin_nombre_3-22);}.cls-26{fill:url(#Degradado_sin_nombre_3-23);}.cls-27{fill:url(#Degradado_sin_nombre_3-24);}.cls-28{fill:url(#Degradado_sin_nombre_3-25);}.cls-29{fill:url(#Degradado_sin_nombre_3-26);}.cls-30{fill:url(#Degradado_sin_nombre_3-27);}.cls-31{fill:url(#Degradado_sin_nombre_3-28);}.cls-32{fill:url(#Degradado_sin_nombre_3-29);}.cls-33{fill:url(#Degradado_sin_nombre_3-30);}.cls-34{fill:url(#Degradado_sin_nombre_3-31);}.cls-35{fill:url(#Degradado_sin_nombre_3-32);}.cls-36{fill:url(#Degradado_sin_nombre_3-33);}.cls-37{fill:url(#Degradado_sin_nombre_3-34);}.cls-38{fill:url(#Degradado_sin_nombre_3-35);}.cls-39{fill:url(#Degradado_sin_nombre_3-36);}.cls-40{fill:url(#Degradado_sin_nombre_3-37);}.cls-41{fill:url(#Degradado_sin_nombre_3-38);}.cls-42{fill:url(#Degradado_sin_nombre_3-39);}.cls-43{fill:url(#Degradado_sin_nombre_3-40);}.cls-44{fill:url(#Degradado_sin_nombre_3-41);}.cls-45{fill:url(#Degradado_sin_nombre_3-42);}.cls-46{fill:url(#Degradado_sin_nombre_3-43);}.cls-47{fill:url(#Degradado_sin_nombre_3-44);}.cls-48{fill:url(#Degradado_sin_nombre_3-45);}.cls-49{fill:url(#Degradado_sin_nombre_3-46);}.cls-50{fill:url(#Degradado_sin_nombre_3-47);}.cls-51{fill:url(#Degradado_sin_nombre_3-48);}.cls-52{fill:url(#Degradado_sin_nombre_3-49);}.cls-53{fill:url(#Degradado_sin_nombre_3-50);}.cls-54{fill:url(#Degradado_sin_nombre_3-51);}.cls-55{fill:url(#Degradado_sin_nombre_3-52);}.cls-56{fill:url(#Degradado_sin_nombre_3-53);}.cls-57{fill:url(#Degradado_sin_nombre_3-54);}.cls-58{fill:url(#Degradado_sin_nombre_3-55);}.cls-59{fill:url(#Degradado_sin_nombre_3-56);}.cls-60{fill:url(#Degradado_sin_nombre_3-57);}.cls-61{fill:url(#Degradado_sin_nombre_3-58);}.cls-62{fill:url(#Degradado_sin_nombre_3-59);}.cls-63{fill:url(#Degradado_sin_nombre_3-60);}.cls-64{fill:url(#Degradado_sin_nombre_3-61);}.cls-65{fill:url(#Degradado_sin_nombre_3-62);}.cls-66{fill:url(#Degradado_sin_nombre_3-63);}.cls-67{fill:url(#Degradado_sin_nombre_3-64);}.cls-68{fill:url(#Degradado_sin_nombre_3-65);}.cls-69{fill:url(#Degradado_sin_nombre_3-66);}.cls-70{fill:url(#Degradado_sin_nombre_3-67);}.cls-71{fill:url(#Degradado_sin_nombre_3-68);}.cls-72{fill:url(#Degradado_sin_nombre_3-69);}.cls-73{fill:url(#Degradado_sin_nombre_3-70);}.cls-74{fill:url(#Degradado_sin_nombre_3-71);}.cls-75{fill:url(#Degradado_sin_nombre_3-72);}.cls-76{fill:url(#Degradado_sin_nombre_3-73);}.cls-77{fill:url(#Degradado_sin_nombre_3-74);}.cls-78{fill:url(#Degradado_sin_nombre_3-75);}.cls-79{fill:url(#Degradado_sin_nombre_3-76);}.cls-80{fill:url(#Degradado_sin_nombre_3-77);}.cls-81{fill:url(#Degradado_sin_nombre_3-78);}.cls-167,.cls-168,.cls-169,.cls-170,.cls-171,.cls-172,.cls-173,.cls-82,.cls-83,.cls-84,.cls-85,.cls-86,.cls-87,.cls-88{opacity:0.53;}.cls-82{fill:url(#Degradado_sin_nombre_2);}.cls-83{fill:url(#Degradado_sin_nombre_2-2);}.cls-84{fill:url(#Degradado_sin_nombre_2-3);}.cls-85{fill:url(#Degradado_sin_nombre_2-4);}.cls-86{fill:url(#Degradado_sin_nombre_2-5);}.cls-87{fill:url(#Degradado_sin_nombre_2-6);}.cls-88{fill:url(#Degradado_sin_nombre_2-7);}.cls-89{fill:url(#Degradado_sin_nombre_3-79);}.cls-90{fill:url(#Degradado_sin_nombre_3-80);}.cls-91{fill:url(#Degradado_sin_nombre_3-81);}.cls-92{fill:url(#Degradado_sin_nombre_3-82);}.cls-93{fill:url(#Degradado_sin_nombre_3-83);}.cls-94{fill:url(#Degradado_sin_nombre_3-84);}.cls-95{fill:url(#Degradado_sin_nombre_3-85);}.cls-96{fill:url(#Degradado_sin_nombre_3-86);}.cls-97{fill:url(#Degradado_sin_nombre_3-87);}.cls-98{fill:url(#Degradado_sin_nombre_3-88);}.cls-99{fill:url(#Degradado_sin_nombre_3-89);}.cls-100{fill:url(#Degradado_sin_nombre_3-90);}.cls-101{fill:url(#Degradado_sin_nombre_3-91);}.cls-102{fill:url(#Degradado_sin_nombre_3-92);}.cls-103{fill:url(#Degradado_sin_nombre_3-93);}.cls-104{fill:url(#Degradado_sin_nombre_3-94);}.cls-105{fill:url(#Degradado_sin_nombre_3-95);}.cls-106{fill:url(#Degradado_sin_nombre_3-96);}.cls-107{fill:url(#Degradado_sin_nombre_3-97);}.cls-108{fill:url(#Degradado_sin_nombre_3-98);}.cls-109{fill:url(#Degradado_sin_nombre_3-99);}.cls-110{fill:url(#Degradado_sin_nombre_3-100);}.cls-111{fill:url(#Degradado_sin_nombre_3-101);}.cls-112{fill:url(#Degradado_sin_nombre_3-102);}.cls-113{fill:url(#Degradado_sin_nombre_3-103);}.cls-114{fill:url(#Degradado_sin_nombre_3-104);}.cls-115{fill:url(#Degradado_sin_nombre_3-105);}.cls-116{fill:url(#Degradado_sin_nombre_3-106);}.cls-117{fill:url(#Degradado_sin_nombre_3-107);}.cls-118{fill:url(#Degradado_sin_nombre_3-108);}.cls-119{fill:url(#Degradado_sin_nombre_3-109);}.cls-120{fill:url(#Degradado_sin_nombre_3-110);}.cls-121{fill:url(#Degradado_sin_nombre_3-111);}.cls-122{fill:url(#Degradado_sin_nombre_3-112);}.cls-123{fill:url(#Degradado_sin_nombre_3-113);}.cls-124{fill:url(#Degradado_sin_nombre_3-114);}.cls-125{fill:url(#Degradado_sin_nombre_3-115);}.cls-126{fill:url(#Degradado_sin_nombre_3-116);}.cls-127{fill:url(#Degradado_sin_nombre_3-117);}.cls-128{fill:url(#Degradado_sin_nombre_3-118);}.cls-129{fill:url(#Degradado_sin_nombre_3-119);}.cls-130{fill:url(#Degradado_sin_nombre_3-120);}.cls-131{fill:url(#Degradado_sin_nombre_3-121);}.cls-132{fill:url(#Degradado_sin_nombre_3-122);}.cls-133{fill:url(#Degradado_sin_nombre_3-123);}.cls-134{fill:url(#Degradado_sin_nombre_3-124);}.cls-135{fill:url(#Degradado_sin_nombre_3-125);}.cls-136{fill:url(#Degradado_sin_nombre_3-126);}.cls-137{fill:url(#Degradado_sin_nombre_3-127);}.cls-138{fill:url(#Degradado_sin_nombre_3-128);}.cls-139{fill:url(#Degradado_sin_nombre_3-129);}.cls-140{fill:url(#Degradado_sin_nombre_3-130);}.cls-141{fill:url(#Degradado_sin_nombre_3-131);}.cls-142{fill:url(#Degradado_sin_nombre_3-132);}.cls-143{fill:url(#Degradado_sin_nombre_3-133);}.cls-144{fill:url(#Degradado_sin_nombre_3-134);}.cls-145{fill:url(#Degradado_sin_nombre_3-135);}.cls-146{fill:url(#Degradado_sin_nombre_3-136);}.cls-147{fill:url(#Degradado_sin_nombre_3-137);}.cls-148{fill:url(#Degradado_sin_nombre_3-138);}.cls-149{fill:url(#Degradado_sin_nombre_3-139);}.cls-150{fill:url(#Degradado_sin_nombre_3-140);}.cls-151{fill:url(#Degradado_sin_nombre_3-141);}.cls-152{fill:url(#Degradado_sin_nombre_3-142);}.cls-153{fill:url(#Degradado_sin_nombre_3-143);}.cls-154{fill:url(#Degradado_sin_nombre_3-144);}.cls-155{fill:url(#Degradado_sin_nombre_3-145);}.cls-156{fill:url(#Degradado_sin_nombre_3-146);}.cls-157{fill:url(#Degradado_sin_nombre_3-147);}.cls-158{fill:url(#Degradado_sin_nombre_3-148);}.cls-159{fill:url(#Degradado_sin_nombre_3-149);}.cls-160{fill:url(#Degradado_sin_nombre_3-150);}.cls-161{fill:url(#Degradado_sin_nombre_3-151);}.cls-162{fill:url(#Degradado_sin_nombre_3-152);}.cls-163{fill:url(#Degradado_sin_nombre_3-153);}.cls-164{fill:url(#Degradado_sin_nombre_3-154);}.cls-165{fill:url(#Degradado_sin_nombre_3-155);}.cls-166{fill:url(#Degradado_sin_nombre_3-156);}.cls-167{fill:url(#Degradado_sin_nombre_2-8);}.cls-168{fill:url(#Degradado_sin_nombre_2-9);}.cls-169{fill:url(#Degradado_sin_nombre_2-10);}.cls-170{fill:url(#Degradado_sin_nombre_2-11);}.cls-171{fill:url(#Degradado_sin_nombre_2-12);}.cls-172{fill:url(#Degradado_sin_nombre_2-13);}.cls-173{fill:url(#Degradado_sin_nombre_2-14);}.cls-174{fill:#4d4d4d;opacity:0.33;}.cls-175,.cls-176{fill:#89bd29;}.cls-175{opacity:0.84;}</style><clipPath id="clip-path"><rect class="cls-1" width="1366" height="772"/></clipPath><radialGradient id="Degradado_sin_nombre_36" cx="634.46" cy="352.64" r="534.93" gradientTransform="translate(-5.43 61.31) scale(1.09 0.92)" gradientUnits="userSpaceOnUse"><stop offset="0" stop-color="#244b9a"/><stop offset="0.05" stop-color="#234995"/><stop offset="0.46" stop-color="#1b356d"/><stop offset="0.8" stop-color="#162955"/><stop offset="1" stop-color="#14244c"/></radialGradient><radialGradient id="Degradado_sin_nombre_3" cx="1316.44" cy="409.22" r="264.6" gradientUnits="userSpaceOnUse"><stop offset="0" stop-color="#00b7c3"/><stop offset="0.38" stop-color="#0090a8"/><stop offset="1" stop-color="#004976"/></radialGradient><radialGradient id="Degradado_sin_nombre_3-2" cx="1316.44" cy="409.22" r="264.6" xlink:href="#Degradado_sin_nombre_3"/><radialGradient id="Degradado_sin_nombre_3-3" cx="1316.44" cy="409.22" r="264.6" xlink:href="#Degradado_sin_nombre_3"/><radialGradient id="Degradado_sin_nombre_3-4" cx="1316.44" cy="409.22" r="264.6" xlink:href="#Degradado_sin_nombre_3"/><radialGradient id="Degradado_sin_nombre_3-5" cx="1316.44" cy="409.22" r="264.6" xlink:href="#Degradado_sin_nombre_3"/><radialGradient id="Degradado_sin_nombre_3-6" cx="1316.44" cy="409.22" r="264.6" xlink:href="#Degradado_sin_nombre_3"/><radialGradient id="Degradado_sin_nombre_3-7" cx="1300.5" cy="409.21" r="286.2" xlink:href="#Degradado_sin_nombre_3"/><radialGradient id="Degradado_sin_nombre_3-8" cx="1295.12" cy="409.22" r="306.73" xlink:href="#Degradado_sin_nombre_3"/><radialGradient id="Degradado_sin_nombre_3-9" cx="1316.44" cy="409.22" r="264.6" xlink:href="#Degradado_sin_nombre_3"/><radialGradient id="Degradado_sin_nombre_3-10" cx="1316.44" cy="409.22" r="264.6" xlink:href="#Degradado_sin_nombre_3"/><radialGradient id="Degradado_sin_nombre_3-11" cx="1316.44" cy="409.22" r="264.6" xlink:href="#Degradado_sin_nombre_3"/><radialGradient id="Degradado_sin_nombre_3-12" cx="1316.44" cy="409.22" r="264.6" xlink:href="#Degradado_sin_nombre_3"/><radialGradient id="Degradado_sin_nombre_3-13" cx="1316.44" cy="409.22" r="264.6" xlink:href="#Degradado_sin_nombre_3"/><radialGradient id="Degradado_sin_nombre_3-14" cx="1316.44" cy="409.22" r="264.6" xlink:href="#Degradado_sin_nombre_3"/><radialGradient id="Degradado_sin_nombre_3-15" cx="1316.44" cy="409.22" r="264.6" xlink:href="#Degradado_sin_nombre_3"/><radialGradient id="Degradado_sin_nombre_3-16" cx="1316.44" cy="409.22" r="264.6" xlink:href="#Degradado_sin_nombre_3"/><radialGradient id="Degradado_sin_nombre_3-17" cx="1316.44" cy="409.22" r="264.6" xlink:href="#Degradado_sin_nombre_3"/><radialGradient id="Degradado_sin_nombre_3-18" cx="1316.44" cy="409.22" r="264.6" xlink:href="#Degradado_sin_nombre_3"/><radialGradient id="Degradado_sin_nombre_3-19" cx="1316.44" cy="409.22" r="264.6" xlink:href="#Degradado_sin_nombre_3"/><radialGradient id="Degradado_sin_nombre_3-20" cx="1316.44" cy="409.21" r="264.6" xlink:href="#Degradado_sin_nombre_3"/><radialGradient id="Degradado_sin_nombre_3-21" cx="1316.44" cy="409.21" r="264.6" xlink:href="#Degradado_sin_nombre_3"/><radialGradient id="Degradado_sin_nombre_3-22" cx="1316.44" cy="409.21" r="264.6" xlink:href="#Degradado_sin_nombre_3"/><radialGradient id="Degradado_sin_nombre_3-23" cx="1316.44" cy="409.22" r="264.6" xlink:href="#Degradado_sin_nombre_3"/><radialGradient id="Degradado_sin_nombre_3-24" cx="1316.44" cy="409.21" r="264.6" xlink:href="#Degradado_sin_nombre_3"/><radialGradient id="Degradado_sin_nombre_3-25" cx="1316.44" cy="409.21" r="264.6" xlink:href="#Degradado_sin_nombre_3"/><radialGradient id="Degradado_sin_nombre_3-26" cx="1316.45" cy="409.21" r="264.61" xlink:href="#Degradado_sin_nombre_3"/><radialGradient id="Degradado_sin_nombre_3-27" cx="1243.84" cy="409.21" r="264.6" xlink:href="#Degradado_sin_nombre_3"/><radialGradient id="Degradado_sin_nombre_3-28" cx="1316.45" cy="409.22" r="264.6" xlink:href="#Degradado_sin_nombre_3"/><radialGradient id="Degradado_sin_nombre_3-29" cx="1316.45" cy="409.22" r="264.6" xlink:href="#Degradado_sin_nombre_3"/><radialGradient id="Degradado_sin_nombre_3-30" cx="1316.44" cy="409.21" r="264.6" xlink:href="#Degradado_sin_nombre_3"/><radialGradient id="Degradado_sin_nombre_3-31" cx="1215.6" cy="409.22" r="264.61" xlink:href="#Degradado_sin_nombre_3"/><radialGradient id="Degradado_sin_nombre_3-32" cx="1316.44" cy="409.22" r="264.6" xlink:href="#Degradado_sin_nombre_3"/><radialGradient id="Degradado_sin_nombre_3-33" cx="1316.44" cy="409.22" r="264.6" xlink:href="#Degradado_sin_nombre_3"/><radialGradient id="Degradado_sin_nombre_3-34" cx="1316.44" cy="409.21" r="264.6" xlink:href="#Degradado_sin_nombre_3"/><radialGradient id="Degradado_sin_nombre_3-35" cx="1316.44" cy="409.22" r="264.61" xlink:href="#Degradado_sin_nombre_3"/><radialGradient id="Degradado_sin_nombre_3-36" cx="1316.44" cy="409.21" r="264.6" xlink:href="#Degradado_sin_nombre_3"/><radialGradient id="Degradado_sin_nombre_3-37" cx="1316.44" cy="409.21" r="264.6" xlink:href="#Degradado_sin_nombre_3"/><radialGradient id="Degradado_sin_nombre_3-38" cx="1316.45" cy="409.22" r="264.61" xlink:href="#Degradado_sin_nombre_3"/><radialGradient id="Degradado_sin_nombre_3-39" cx="1316.44" cy="409.21" r="264.6" xlink:href="#Degradado_sin_nombre_3"/><radialGradient id="Degradado_sin_nombre_3-40" cx="1316.44" cy="409.22" r="264.6" xlink:href="#Degradado_sin_nombre_3"/><radialGradient id="Degradado_sin_nombre_3-41" cx="1316.44" cy="409.22" r="264.6" xlink:href="#Degradado_sin_nombre_3"/><radialGradient id="Degradado_sin_nombre_3-42" cx="1316.44" cy="409.22" r="264.6" xlink:href="#Degradado_sin_nombre_3"/><radialGradient id="Degradado_sin_nombre_3-43" cx="1316.44" cy="409.22" r="264.6" xlink:href="#Degradado_sin_nombre_3"/><radialGradient id="Degradado_sin_nombre_3-44" cx="1316.44" cy="409.22" r="264.6" xlink:href="#Degradado_sin_nombre_3"/><radialGradient id="Degradado_sin_nombre_3-45" cx="1316.44" cy="409.22" r="264.6" xlink:href="#Degradado_sin_nombre_3"/><radialGradient id="Degradado_sin_nombre_3-46" cx="1316.44" cy="409.22" r="264.6" xlink:href="#Degradado_sin_nombre_3"/><radialGradient id="Degradado_sin_nombre_3-47" cx="1316.44" cy="409.22" r="264.6" xlink:href="#Degradado_sin_nombre_3"/><radialGradient id="Degradado_sin_nombre_3-48" cx="1316.44" cy="409.21" r="264.6" xlink:href="#Degradado_sin_nombre_3"/><radialGradient id="Degradado_sin_nombre_3-49" cx="1316.44" cy="409.22" r="264.6" xlink:href="#Degradado_sin_nombre_3"/><radialGradient id="Degradado_sin_nombre_3-50" cx="1316.44" cy="409.22" r="264.6" xlink:href="#Degradado_sin_nombre_3"/><radialGradient id="Degradado_sin_nombre_3-51" cx="1316.44" cy="409.22" r="264.6" xlink:href="#Degradado_sin_nombre_3"/><radialGradient id="Degradado_sin_nombre_3-52" cx="1316.44" cy="409.22" r="264.6" xlink:href="#Degradado_sin_nombre_3"/><radialGradient id="Degradado_sin_nombre_3-53" cx="1301.06" cy="409.22" r="291.94" xlink:href="#Degradado_sin_nombre_3"/><radialGradient id="Degradado_sin_nombre_3-54" cx="1316.44" cy="409.22" r="264.6" xlink:href="#Degradado_sin_nombre_3"/><radialGradient id="Degradado_sin_nombre_3-55" cx="1316.44" cy="409.22" r="264.6" xlink:href="#Degradado_sin_nombre_3"/><radialGradient id="Degradado_sin_nombre_3-56" cx="1316.44" cy="409.22" r="264.6" xlink:href="#Degradado_sin_nombre_3"/><radialGradient id="Degradado_sin_nombre_3-57" cx="1316.44" cy="409.21" r="264.6" xlink:href="#Degradado_sin_nombre_3"/><radialGradient id="Degradado_sin_nombre_3-58" cx="1316.44" cy="409.22" r="264.6" xlink:href="#Degradado_sin_nombre_3"/><radialGradient id="Degradado_sin_nombre_3-59" cx="1316.44" cy="409.22" r="264.6" xlink:href="#Degradado_sin_nombre_3"/><radialGradient id="Degradado_sin_nombre_3-60" cx="1316.44" cy="409.22" r="264.6" xlink:href="#Degradado_sin_nombre_3"/><radialGradient id="Degradado_sin_nombre_3-61" cx="1316.44" cy="409.22" r="264.6" xlink:href="#Degradado_sin_nombre_3"/><radialGradient id="Degradado_sin_nombre_3-62" cx="1316.44" cy="409.21" r="264.6" xlink:href="#Degradado_sin_nombre_3"/><radialGradient id="Degradado_sin_nombre_3-63" cx="1316.44" cy="409.22" r="264.6" xlink:href="#Degradado_sin_nombre_3"/><radialGradient id="Degradado_sin_nombre_3-64" cx="1316.44" cy="409.21" r="264.6" xlink:href="#Degradado_sin_nombre_3"/><radialGradient id="Degradado_sin_nombre_3-65" cx="1316.45" cy="409.22" r="264.61" xlink:href="#Degradado_sin_nombre_3"/><radialGradient id="Degradado_sin_nombre_3-66" cx="1316.45" cy="409.22" r="264.6" xlink:href="#Degradado_sin_nombre_3"/><radialGradient id="Degradado_sin_nombre_3-67" cx="1316.45" cy="409.22" r="264.6" xlink:href="#Degradado_sin_nombre_3"/><radialGradient id="Degradado_sin_nombre_3-68" cx="1316.45" cy="409.21" r="264.61" xlink:href="#Degradado_sin_nombre_3"/><radialGradient id="Degradado_sin_nombre_3-69" cx="1251.19" cy="409.22" r="264.6" xlink:href="#Degradado_sin_nombre_3"/><radialGradient id="Degradado_sin_nombre_3-70" cx="1316.46" cy="409.22" r="264.61" xlink:href="#Degradado_sin_nombre_3"/><radialGradient id="Degradado_sin_nombre_3-71" cx="1316.44" cy="409.21" r="264.6" xlink:href="#Degradado_sin_nombre_3"/><radialGradient id="Degradado_sin_nombre_3-72" cx="1316.44" cy="409.22" r="264.6" xlink:href="#Degradado_sin_nombre_3"/><radialGradient id="Degradado_sin_nombre_3-73" cx="1316.44" cy="409.22" r="264.6" xlink:href="#Degradado_sin_nombre_3"/><radialGradient id="Degradado_sin_nombre_3-74" cx="1316.44" cy="409.21" r="264.61" xlink:href="#Degradado_sin_nombre_3"/><radialGradient id="Degradado_sin_nombre_3-75" cx="1316.44" cy="409.22" r="264.6" xlink:href="#Degradado_sin_nombre_3"/><radialGradient id="Degradado_sin_nombre_3-76" cx="1316.44" cy="409.22" r="264.6" xlink:href="#Degradado_sin_nombre_3"/><radialGradient id="Degradado_sin_nombre_3-77" cx="1316.45" cy="409.22" r="264.61" xlink:href="#Degradado_sin_nombre_3"/><radialGradient id="Degradado_sin_nombre_3-78" cx="1316.44" cy="409.22" r="264.6" xlink:href="#Degradado_sin_nombre_3"/><radialGradient id="Degradado_sin_nombre_2" cx="951.16" cy="107.07" r="11.59" gradientUnits="userSpaceOnUse"><stop offset="0" stop-color="#82ffff"/><stop offset="1" stop-color="#82ffff" stop-opacity="0"/></radialGradient><radialGradient id="Degradado_sin_nombre_2-2" cx="1179.05" cy="170.64" r="11.59" xlink:href="#Degradado_sin_nombre_2"/><radialGradient id="Degradado_sin_nombre_2-3" cx="1015.16" cy="266.93" r="11.59" gradientTransform="translate(179.42 -368.17) rotate(22.5)" xlink:href="#Degradado_sin_nombre_2"/><radialGradient id="Degradado_sin_nombre_2-4" cx="1091.7" cy="393.2" r="11.59" xlink:href="#Degradado_sin_nombre_2"/><radialGradient id="Degradado_sin_nombre_2-5" cx="1041.97" cy="686.4" r="11.59" xlink:href="#Degradado_sin_nombre_2"/><radialGradient id="Degradado_sin_nombre_2-6" cx="1179.21" cy="580.17" r="11.59" xlink:href="#Degradado_sin_nombre_2"/><radialGradient id="Degradado_sin_nombre_2-7" cx="903.6" cy="440.93" r="11.59" xlink:href="#Degradado_sin_nombre_2"/><radialGradient id="Degradado_sin_nombre_3-79" cx="2841.88" cy="2577" r="264.6" gradientTransform="translate(2893.85 2916.39) rotate(180)" xlink:href="#Degradado_sin_nombre_3"/><radialGradient id="Degradado_sin_nombre_3-80" cx="2841.88" cy="2577" r="264.6" gradientTransform="translate(2893.85 2916.39) rotate(180)" xlink:href="#Degradado_sin_nombre_3"/><radialGradient id="Degradado_sin_nombre_3-81" cx="2841.88" cy="2577" r="264.6" gradientTransform="translate(2893.85 2916.39) rotate(180)" xlink:href="#Degradado_sin_nombre_3"/><radialGradient id="Degradado_sin_nombre_3-82" cx="2841.88" cy="2577" r="264.6" gradientTransform="translate(2893.85 2916.39) rotate(180)" xlink:href="#Degradado_sin_nombre_3"/><radialGradient id="Degradado_sin_nombre_3-83" cx="2841.88" cy="2577" r="264.6" gradientTransform="translate(2893.85 2916.39) rotate(180)" xlink:href="#Degradado_sin_nombre_3"/><radialGradient id="Degradado_sin_nombre_3-84" cx="2841.88" cy="2577" r="264.6" gradientTransform="translate(2893.85 2916.39) rotate(180)" xlink:href="#Degradado_sin_nombre_3"/><radialGradient id="Degradado_sin_nombre_3-85" cx="2825.94" cy="2577" r="286.2" gradientTransform="translate(2893.85 2916.39) rotate(180)" xlink:href="#Degradado_sin_nombre_3"/><radialGradient id="Degradado_sin_nombre_3-86" cx="2820.56" cy="2577" r="306.73" gradientTransform="translate(2893.85 2916.39) rotate(180)" xlink:href="#Degradado_sin_nombre_3"/><radialGradient id="Degradado_sin_nombre_3-87" cx="2841.88" cy="2577" r="264.6" gradientTransform="translate(2893.85 2916.39) rotate(180)" xlink:href="#Degradado_sin_nombre_3"/><radialGradient id="Degradado_sin_nombre_3-88" cx="2841.88" cy="2577" r="264.6" gradientTransform="translate(2893.85 2916.39) rotate(180)" xlink:href="#Degradado_sin_nombre_3"/><radialGradient id="Degradado_sin_nombre_3-89" cx="2841.88" cy="2577" r="264.6" gradientTransform="translate(2893.85 2916.39) rotate(180)" xlink:href="#Degradado_sin_nombre_3"/><radialGradient id="Degradado_sin_nombre_3-90" cx="2841.88" cy="2577" r="264.6" gradientTransform="translate(2893.85 2916.39) rotate(180)" xlink:href="#Degradado_sin_nombre_3"/><radialGradient id="Degradado_sin_nombre_3-91" cx="2841.88" cy="2577" r="264.6" gradientTransform="translate(2893.85 2916.39) rotate(180)" xlink:href="#Degradado_sin_nombre_3"/><radialGradient id="Degradado_sin_nombre_3-92" cx="2841.88" cy="2577" r="264.6" gradientTransform="translate(2893.85 2916.39) rotate(180)" xlink:href="#Degradado_sin_nombre_3"/><radialGradient id="Degradado_sin_nombre_3-93" cx="2841.88" cy="2577" r="264.6" gradientTransform="translate(2893.85 2916.39) rotate(180)" xlink:href="#Degradado_sin_nombre_3"/><radialGradient id="Degradado_sin_nombre_3-94" cx="2841.88" cy="2577" r="264.6" gradientTransform="translate(2893.85 2916.39) rotate(180)" xlink:href="#Degradado_sin_nombre_3"/><radialGradient id="Degradado_sin_nombre_3-95" cx="2841.88" cy="2577" r="264.6" gradientTransform="translate(2893.85 2916.39) rotate(180)" xlink:href="#Degradado_sin_nombre_3"/><radialGradient id="Degradado_sin_nombre_3-96" cx="2841.88" cy="2577" r="264.6" gradientTransform="translate(2893.85 2916.39) rotate(180)" xlink:href="#Degradado_sin_nombre_3"/><radialGradient id="Degradado_sin_nombre_3-97" cx="2841.88" cy="2577" r="264.6" gradientTransform="translate(2893.85 2916.39) rotate(180)" xlink:href="#Degradado_sin_nombre_3"/><radialGradient id="Degradado_sin_nombre_3-98" cx="2841.88" cy="2577" r="264.6" gradientTransform="translate(2893.85 2916.39) rotate(180)" xlink:href="#Degradado_sin_nombre_3"/><radialGradient id="Degradado_sin_nombre_3-99" cx="2841.88" cy="2577.01" r="264.61" gradientTransform="translate(2893.85 2916.39) rotate(180)" xlink:href="#Degradado_sin_nombre_3"/><radialGradient id="Degradado_sin_nombre_3-100" cx="2841.88" cy="2577" r="264.6" gradientTransform="translate(2893.85 2916.39) rotate(180)" xlink:href="#Degradado_sin_nombre_3"/><radialGradient id="Degradado_sin_nombre_3-101" cx="2841.89" cy="2577" r="264.61" gradientTransform="translate(2893.85 2916.39) rotate(180)" xlink:href="#Degradado_sin_nombre_3"/><radialGradient id="Degradado_sin_nombre_3-102" cx="2841.88" cy="2577" r="264.6" gradientTransform="translate(2893.85 2916.39) rotate(180)" xlink:href="#Degradado_sin_nombre_3"/><radialGradient id="Degradado_sin_nombre_3-103" cx="2841.88" cy="2577" r="264.6" gradientTransform="translate(2893.85 2916.39) rotate(180)" xlink:href="#Degradado_sin_nombre_3"/><radialGradient id="Degradado_sin_nombre_3-104" cx="2841.88" cy="2577" r="264.6" gradientTransform="translate(2893.85 2916.39) rotate(180)" xlink:href="#Degradado_sin_nombre_3"/><radialGradient id="Degradado_sin_nombre_3-105" cx="2769.28" cy="2577" r="264.6" gradientTransform="translate(2893.85 2916.39) rotate(180)" xlink:href="#Degradado_sin_nombre_3"/><radialGradient id="Degradado_sin_nombre_3-106" cx="2841.88" cy="2577" r="264.6" gradientTransform="translate(2893.85 2916.39) rotate(180)" xlink:href="#Degradado_sin_nombre_3"/><radialGradient id="Degradado_sin_nombre_3-107" cx="2841.88" cy="2577" r="264.6" gradientTransform="translate(2893.85 2916.39) rotate(180)" xlink:href="#Degradado_sin_nombre_3"/><radialGradient id="Degradado_sin_nombre_3-108" cx="2841.88" cy="2577" r="264.6" gradientTransform="translate(2893.85 2916.39) rotate(180)" xlink:href="#Degradado_sin_nombre_3"/><radialGradient id="Degradado_sin_nombre_3-109" cx="2741.04" cy="2577" r="264.61" gradientTransform="translate(2893.85 2916.39) rotate(180)" xlink:href="#Degradado_sin_nombre_3"/><radialGradient id="Degradado_sin_nombre_3-110" cx="2841.88" cy="2577" r="264.6" gradientTransform="translate(2893.85 2916.39) rotate(180)" xlink:href="#Degradado_sin_nombre_3"/><radialGradient id="Degradado_sin_nombre_3-111" cx="2841.88" cy="2577" r="264.6" gradientTransform="translate(2893.85 2916.39) rotate(180)" xlink:href="#Degradado_sin_nombre_3"/><radialGradient id="Degradado_sin_nombre_3-112" cx="2841.88" cy="2577" r="264.6" gradientTransform="translate(2893.85 2916.39) rotate(180)" xlink:href="#Degradado_sin_nombre_3"/><radialGradient id="Degradado_sin_nombre_3-113" cx="2841.88" cy="2577" r="264.6" gradientTransform="translate(2893.85 2916.39) rotate(180)" xlink:href="#Degradado_sin_nombre_3"/><radialGradient id="Degradado_sin_nombre_3-114" cx="2841.88" cy="2577" r="264.6" gradientTransform="translate(2893.85 2916.39) rotate(180)" xlink:href="#Degradado_sin_nombre_3"/><radialGradient id="Degradado_sin_nombre_3-115" cx="2841.88" cy="2577" r="264.6" gradientTransform="translate(2893.85 2916.39) rotate(180)" xlink:href="#Degradado_sin_nombre_3"/><radialGradient id="Degradado_sin_nombre_3-116" cx="2841.89" cy="2577" r="264.61" gradientTransform="translate(2893.85 2916.39) rotate(180)" xlink:href="#Degradado_sin_nombre_3"/><radialGradient id="Degradado_sin_nombre_3-117" cx="2841.88" cy="2577" r="264.6" gradientTransform="translate(2893.85 2916.39) rotate(180)" xlink:href="#Degradado_sin_nombre_3"/><radialGradient id="Degradado_sin_nombre_3-118" cx="2841.88" cy="2577" r="264.6" gradientTransform="translate(2893.85 2916.39) rotate(180)" xlink:href="#Degradado_sin_nombre_3"/><radialGradient id="Degradado_sin_nombre_3-119" cx="2841.88" cy="2577" r="264.6" gradientTransform="translate(2893.85 2916.39) rotate(180)" xlink:href="#Degradado_sin_nombre_3"/><radialGradient id="Degradado_sin_nombre_3-120" cx="2841.88" cy="2577" r="264.6" gradientTransform="translate(2893.85 2916.39) rotate(180)" xlink:href="#Degradado_sin_nombre_3"/><radialGradient id="Degradado_sin_nombre_3-121" cx="2841.88" cy="2577" r="264.6" gradientTransform="translate(2893.85 2916.39) rotate(180)" xlink:href="#Degradado_sin_nombre_3"/><radialGradient id="Degradado_sin_nombre_3-122" cx="2841.88" cy="2577" r="264.6" gradientTransform="translate(2893.85 2916.39) rotate(180)" xlink:href="#Degradado_sin_nombre_3"/><radialGradient id="Degradado_sin_nombre_3-123" cx="2841.88" cy="2577" r="264.6" gradientTransform="translate(2893.85 2916.39) rotate(180)" xlink:href="#Degradado_sin_nombre_3"/><radialGradient id="Degradado_sin_nombre_3-124" cx="2841.88" cy="2577" r="264.6" gradientTransform="translate(2893.85 2916.39) rotate(180)" xlink:href="#Degradado_sin_nombre_3"/><radialGradient id="Degradado_sin_nombre_3-125" cx="2841.88" cy="2577" r="264.6" gradientTransform="translate(2893.85 2916.39) rotate(180)" xlink:href="#Degradado_sin_nombre_3"/><radialGradient id="Degradado_sin_nombre_3-126" cx="2841.88" cy="2577" r="264.6" gradientTransform="translate(2893.85 2916.39) rotate(180)" xlink:href="#Degradado_sin_nombre_3"/><radialGradient id="Degradado_sin_nombre_3-127" cx="2841.88" cy="2577" r="264.6" gradientTransform="translate(2893.85 2916.39) rotate(180)" xlink:href="#Degradado_sin_nombre_3"/><radialGradient id="Degradado_sin_nombre_3-128" cx="2841.88" cy="2577" r="264.6" gradientTransform="translate(2893.85 2916.39) rotate(180)" xlink:href="#Degradado_sin_nombre_3"/><radialGradient id="Degradado_sin_nombre_3-129" cx="2841.88" cy="2577" r="264.6" gradientTransform="translate(2893.85 2916.39) rotate(180)" xlink:href="#Degradado_sin_nombre_3"/><radialGradient id="Degradado_sin_nombre_3-130" cx="2841.88" cy="2577" r="264.6" gradientTransform="translate(2893.85 2916.39) rotate(180)" xlink:href="#Degradado_sin_nombre_3"/><radialGradient id="Degradado_sin_nombre_3-131" cx="2826.5" cy="2577" r="291.94" gradientTransform="translate(2893.85 2916.39) rotate(180)" xlink:href="#Degradado_sin_nombre_3"/><radialGradient id="Degradado_sin_nombre_3-132" cx="2841.88" cy="2577" r="264.6" gradientTransform="translate(2893.85 2916.39) rotate(180)" xlink:href="#Degradado_sin_nombre_3"/><radialGradient id="Degradado_sin_nombre_3-133" cx="2841.88" cy="2577" r="264.6" gradientTransform="translate(2893.85 2916.39) rotate(180)" xlink:href="#Degradado_sin_nombre_3"/><radialGradient id="Degradado_sin_nombre_3-134" cx="2841.88" cy="2577" r="264.6" gradientTransform="translate(2893.85 2916.39) rotate(180)" xlink:href="#Degradado_sin_nombre_3"/><radialGradient id="Degradado_sin_nombre_3-135" cx="2841.88" cy="2577" r="264.6" gradientTransform="translate(2893.85 2916.39) rotate(180)" xlink:href="#Degradado_sin_nombre_3"/><radialGradient id="Degradado_sin_nombre_3-136" cx="2841.88" cy="2577" r="264.6" gradientTransform="translate(2893.85 2916.39) rotate(180)" xlink:href="#Degradado_sin_nombre_3"/><radialGradient id="Degradado_sin_nombre_3-137" cx="2841.88" cy="2577" r="264.6" gradientTransform="translate(2893.85 2916.39) rotate(180)" xlink:href="#Degradado_sin_nombre_3"/><radialGradient id="Degradado_sin_nombre_3-138" cx="2841.88" cy="2577" r="264.6" gradientTransform="translate(2893.85 2916.39) rotate(180)" xlink:href="#Degradado_sin_nombre_3"/><radialGradient id="Degradado_sin_nombre_3-139" cx="2841.88" cy="2576.99" r="264.6" gradientTransform="translate(2893.85 2916.39) rotate(180)" xlink:href="#Degradado_sin_nombre_3"/><radialGradient id="Degradado_sin_nombre_3-140" cx="2841.89" cy="2576.99" r="264.61" gradientTransform="translate(2893.85 2916.39) rotate(180)" xlink:href="#Degradado_sin_nombre_3"/><radialGradient id="Degradado_sin_nombre_3-141" cx="2841.88" cy="2577" r="264.6" gradientTransform="translate(2893.85 2916.39) rotate(180)" xlink:href="#Degradado_sin_nombre_3"/><radialGradient id="Degradado_sin_nombre_3-142" cx="2841.88" cy="2576.99" r="264.6" gradientTransform="translate(2893.85 2916.39) rotate(180)" xlink:href="#Degradado_sin_nombre_3"/><radialGradient id="Degradado_sin_nombre_3-143" cx="2841.88" cy="2577" r="264.6" gradientTransform="translate(2893.85 2916.39) rotate(180)" xlink:href="#Degradado_sin_nombre_3"/><radialGradient id="Degradado_sin_nombre_3-144" cx="2841.89" cy="2577" r="264.61" gradientTransform="translate(2893.85 2916.39) rotate(180)" xlink:href="#Degradado_sin_nombre_3"/><radialGradient id="Degradado_sin_nombre_3-145" cx="2841.88" cy="2577" r="264.6" gradientTransform="translate(2893.85 2916.39) rotate(180)" xlink:href="#Degradado_sin_nombre_3"/><radialGradient id="Degradado_sin_nombre_3-146" cx="2841.88" cy="2577" r="264.61" gradientTransform="translate(2893.85 2916.39) rotate(180)" xlink:href="#Degradado_sin_nombre_3"/><radialGradient id="Degradado_sin_nombre_3-147" cx="2776.63" cy="2577" r="264.6" gradientTransform="translate(2893.85 2916.39) rotate(180)" xlink:href="#Degradado_sin_nombre_3"/><radialGradient id="Degradado_sin_nombre_3-148" cx="2841.9" cy="2577" r="264.61" gradientTransform="translate(2893.85 2916.39) rotate(180)" xlink:href="#Degradado_sin_nombre_3"/><radialGradient id="Degradado_sin_nombre_3-149" cx="2841.88" cy="2577" r="264.6" gradientTransform="translate(2893.85 2916.39) rotate(180)" xlink:href="#Degradado_sin_nombre_3"/><radialGradient id="Degradado_sin_nombre_3-150" cx="2841.88" cy="2577" r="264.6" gradientTransform="translate(2893.85 2916.39) rotate(180)" xlink:href="#Degradado_sin_nombre_3"/><radialGradient id="Degradado_sin_nombre_3-151" cx="2841.88" cy="2576.99" r="264.6" gradientTransform="translate(2893.85 2916.39) rotate(180)" xlink:href="#Degradado_sin_nombre_3"/><radialGradient id="Degradado_sin_nombre_3-152" cx="2841.88" cy="2577" r="264.6" gradientTransform="translate(2893.85 2916.39) rotate(180)" xlink:href="#Degradado_sin_nombre_3"/><radialGradient id="Degradado_sin_nombre_3-153" cx="2841.88" cy="2577" r="264.6" gradientTransform="translate(2893.85 2916.39) rotate(180)" xlink:href="#Degradado_sin_nombre_3"/><radialGradient id="Degradado_sin_nombre_3-154" cx="2841.88" cy="2577" r="264.6" gradientTransform="translate(2893.85 2916.39) rotate(180)" xlink:href="#Degradado_sin_nombre_3"/><radialGradient id="Degradado_sin_nombre_3-155" cx="2841.89" cy="2577" r="264.61" gradientTransform="translate(2893.85 2916.39) rotate(180)" xlink:href="#Degradado_sin_nombre_3"/><radialGradient id="Degradado_sin_nombre_3-156" cx="2841.88" cy="2577" r="264.6" gradientTransform="translate(2893.85 2916.39) rotate(180)" xlink:href="#Degradado_sin_nombre_3"/><radialGradient id="Degradado_sin_nombre_2-8" cx="2476.6" cy="2274.85" r="11.59" gradientTransform="translate(2893.85 2916.39) rotate(180)" xlink:href="#Degradado_sin_nombre_2"/><radialGradient id="Degradado_sin_nombre_2-9" cx="2704.49" cy="2338.42" r="11.59" gradientTransform="translate(2893.85 2916.39) rotate(180)" xlink:href="#Degradado_sin_nombre_2"/><radialGradient id="Degradado_sin_nombre_2-10" cx="2540.59" cy="2434.71" r="11.59" gradientTransform="translate(2893.85 2916.39) rotate(180)" xlink:href="#Degradado_sin_nombre_2"/><radialGradient id="Degradado_sin_nombre_2-11" cx="2617.14" cy="2560.98" r="11.59" gradientTransform="translate(2893.85 2916.39) rotate(180)" xlink:href="#Degradado_sin_nombre_2"/><radialGradient id="Degradado_sin_nombre_2-12" cx="2567.41" cy="2854.18" r="11.59" gradientTransform="translate(2893.85 2916.39) rotate(180)" xlink:href="#Degradado_sin_nombre_2"/><radialGradient id="Degradado_sin_nombre_2-13" cx="2704.65" cy="2747.95" r="11.59" gradientTransform="translate(2893.85 2916.39) rotate(180)" xlink:href="#Degradado_sin_nombre_2"/><radialGradient id="Degradado_sin_nombre_2-14" cx="2429.04" cy="2608.72" r="11.59" gradientTransform="translate(2893.85 2916.39) rotate(180)" xlink:href="#Degradado_sin_nombre_2"/></defs><title>PORTADA SISTEMA</title><g class="cls-2"><rect class="cls-3" width="1366" height="768"/><polygon class="cls-4" points="1244.19 52.09 1209.14 52.09 1209.14 49.96 1243.22 49.96 1269.38 20.06 1333.02 20.06 1347.04 8.38 1399.68 8.38 1399.98 8.65 1440.62 44.62 1439.21 46.21 1398.87 10.51 1347.8 10.51 1333.79 22.18 1270.35 22.18 1244.19 52.09"/><path class="cls-5" d="M1122.82,120.9h-90.39l-.07-.08-13.94-13.47h-65.3v-.53h65.52l.07.07,13.94,13.48h89.95l54.19-54.66h84.56c13.83-13.84,34.5-34.83,34.93-36.18a.19.19,0,0,0,0,.17l.18-.12v-.31h101l.08.08,17.67,18.14h18.58V48h-18.8l-.08-.08L1397.29,29.8H1296.71c-.47.86-3.22,4.08-17.38,18.5-8.71,8.89-17.59,17.77-17.68,17.86l-.08.08H1177Z"/><polygon class="cls-6" points="1294.55 99.5 1293.77 98.78 1321.03 69.65 1432.44 69.65 1432.44 70.71 1321.49 70.71 1294.55 99.5"/><polygon class="cls-7" points="1432.91 93.66 1373.16 93.66 1331.11 53.95 1291.34 53.95 1253.03 92.73 1114.78 92.73 1087.21 63.77 1043.29 63.77 1043.29 61.64 1088.12 61.64 1115.69 90.6 1252.14 90.6 1290.45 51.83 1331.96 51.83 1374 91.54 1432.91 91.54 1432.91 93.66"/><polygon class="cls-8" points="1362.6 129.57 1301.41 129.57 1301.25 129.4 1281.78 108.55 1168.96 108.55 1168.96 107.49 1282.24 107.49 1282.4 107.66 1301.87 128.51 1362.14 128.51 1387.37 102.35 1432.44 102.35 1432.44 103.41 1387.82 103.41 1362.6 129.57"/><polygon class="cls-9" points="1264.93 170.68 1181.11 170.68 1181.11 169.62 1264.52 169.62 1290.69 145.79 1379.89 145.79 1399.98 124.77 1432.91 124.77 1432.91 125.83 1400.44 125.83 1380.35 146.86 1291.1 146.86 1264.93 170.68"/><polygon class="cls-10" points="937.25 310.09 833.34 310.09 833.34 305.84 935.36 305.84 954.27 284.73 954.27 221.56 989.18 188.58 1108.77 188.58 1187.25 112.43 1225.85 112.43 1264.62 147.94 1431.98 147.94 1431.98 152.19 1262.97 152.19 1224.19 116.68 1188.97 116.68 1110.49 192.83 990.88 192.83 958.52 223.39 958.52 286.36 937.25 310.09"/><polygon class="cls-11" points="931.62 362.41 780.6 362.41 780.6 361.35 931.19 361.35 965.79 328.5 965.79 166.31 997.48 134.62 1074.38 134.62 1074.54 134.78 1136.7 197.38 1272.82 197.38 1304.2 165.12 1433.04 165.12 1433.04 166.18 1304.65 166.18 1273.27 198.44 1136.26 198.44 1136.1 198.28 1073.94 135.68 997.92 135.68 966.85 166.75 966.85 328.96 966.68 329.12 931.62 362.41"/><polygon class="cls-12" points="1130.23 269.11 1017.22 269.11 1017.22 264.86 1128.46 264.86 1167.31 225.67 1313.18 225.67 1360.55 177.96 1432.32 177.96 1432.32 182.21 1362.32 182.21 1314.95 229.92 1169.08 229.92 1130.23 269.11"/><polygon class="cls-13" points="1322.89 210.45 1287.38 210.45 1287.06 210.14 1206.61 128.66 1152.96 128.66 1114.79 166.83 988.02 166.83 964.85 190.69 939.52 190.69 939.52 188.56 963.95 188.56 987.12 164.71 1113.91 164.71 1152.08 126.54 1207.49 126.54 1207.81 126.85 1288.26 208.33 1322.06 208.33 1339.98 191.63 1431.98 191.63 1431.98 193.75 1340.82 193.75 1322.89 210.45"/><polygon class="cls-14" points="1325.06 241.24 1120.91 241.24 1084.2 204.53 1027 204.53 994.67 236.3 923.56 236.3 923.56 234.18 993.8 234.18 1026.13 202.4 1085.08 202.4 1121.79 239.11 1324.19 239.11 1350.49 213.36 1435.31 213.36 1435.31 215.48 1351.36 215.48 1325.06 241.24"/><polygon class="cls-15" points="1328.22 271.59 1235.05 271.59 1235.05 270.52 1327.77 270.52 1364.11 232.5 1434.05 232.5 1434.05 233.56 1364.56 233.56 1328.22 271.59"/><polygon class="cls-16" points="1221.81 364.35 1041.57 364.35 1041.49 364.27 1011.19 333.44 915.9 333.44 915.9 332.91 1011.41 332.91 1011.49 332.99 1041.79 363.81 1221.59 363.81 1245.69 339.3 1347.47 339.3 1392.77 288.14 1436.59 288.14 1436.59 288.67 1393.01 288.67 1347.71 339.83 1245.91 339.83 1221.81 364.35"/><polygon class="cls-17" points="1436.59 333.7 1395.33 333.7 1342.04 279.87 1189 279.87 1144.23 327.31 1049.98 327.31 1007.35 284.67 927.1 284.67 927.1 283.61 1007.79 283.61 1050.42 326.24 1143.78 326.24 1188.54 278.81 1342.48 278.81 1395.78 332.64 1436.59 332.64 1436.59 333.7"/><polygon class="cls-18" points="1405.25 301.99 1241.96 301.99 1241.88 301.92 1193.99 255.09 1104.98 255.09 1104.9 255.01 1075.67 222.58 1042.74 222.58 1042.74 222.05 1075.91 222.05 1075.98 222.14 1105.22 254.56 1194.21 254.56 1194.29 254.64 1242.17 301.46 1405.05 301.46 1436.95 272.75 1437.3 273.15 1405.25 301.99"/><polygon class="cls-19" points="1369.26 360.35 1235.7 360.35 1222.91 344.89 1150.5 344.89 1150.19 344.59 1050.84 246.83 920.62 246.83 901.75 266.75 900.21 265.29 919.71 244.71 1051.71 244.71 1052.02 245.01 1151.37 342.77 1223.91 342.77 1236.7 358.22 1368.56 358.22 1382.95 347.56 1434.99 347.56 1434.99 349.69 1383.65 349.69 1369.26 360.35"/><polygon class="cls-20" points="1281.69 377.94 1228.21 377.94 1228.21 376.87 1281.32 376.87 1298.37 363.02 1434.99 363.02 1434.99 364.08 1298.75 364.08 1281.69 377.94"/><polygon class="cls-21" points="1313.48 250.3 1277.66 250.3 1277.58 250.21 1241.95 211.92 1188.13 211.92 1188.05 211.85 1082.07 105.33 1045.41 105.33 1045.41 104.81 1082.29 104.81 1082.37 104.88 1188.35 211.39 1242.18 211.39 1242.26 211.48 1277.89 249.77 1313.48 249.77 1313.48 250.3"/><polygon class="cls-22" points="1127.31 357.15 1094.44 357.15 1094.44 352.9 1125.53 352.9 1158.04 319.85 1220.35 319.85 1250.19 287.34 1361.63 287.34 1381.88 267.09 1405.15 267.09 1405.15 271.34 1383.64 271.34 1363.39 291.59 1252.06 291.59 1222.21 324.1 1159.82 324.1 1127.31 357.15"/><circle class="cls-23" cx="1207.41" cy="51.13" r="2.18"/><circle class="cls-24" cx="1167.96" cy="108.28" r="2.18"/><circle class="cls-25" cx="1044.59" cy="105.06" r="2.18"/><path class="cls-26" d="M940.17,189.58a2.19,2.19,0,1,1-2.18-2.19A2.19,2.19,0,0,1,940.17,189.58Z"/><circle class="cls-27" cx="1041.99" cy="62.67" r="2.18"/><circle class="cls-28" cx="951.16" cy="107.07" r="2.18"/><path class="cls-29" d="M924.57,235.43a2.19,2.19,0,1,1-2.18-2.18A2.18,2.18,0,0,1,924.57,235.43Z"/><circle class="cls-30" cx="830.82" cy="308.02" r="3.68"/><path class="cls-31" d="M1095.52,355a3.68,3.68,0,1,1-3.68-3.68A3.67,3.67,0,0,1,1095.52,355Z"/><path class="cls-32" d="M1019,266.87a3.68,3.68,0,1,1-3.67-3.67A3.67,3.67,0,0,1,1019,266.87Z"/><circle class="cls-33" cx="925.64" cy="284.32" r="2.18"/><path class="cls-34" d="M781.36,361.84a2.19,2.19,0,1,1-2.18-2.18A2.18,2.18,0,0,1,781.36,361.84Z"/><path class="cls-35" d="M902.28,267.2A2.18,2.18,0,1,1,900.1,265,2.17,2.17,0,0,1,902.28,267.2Z"/><path class="cls-36" d="M916.56,333.31a2.19,2.19,0,1,1-2.18-2.18A2.19,2.19,0,0,1,916.56,333.31Z"/><circle class="cls-37" cx="1041.01" cy="222.32" r="2.18"/><path class="cls-38" d="M1181.43,170.24a2.18,2.18,0,1,1-2.18-2.19A2.18,2.18,0,0,1,1181.43,170.24Z"/><path class="cls-39" d="M1317.67,249.82a2.19,2.19,0,1,1-2.18-2.18A2.18,2.18,0,0,1,1317.67,249.82Z"/><circle class="cls-40" cx="1233.28" cy="270.92" r="2.18"/><path class="cls-41" d="M1228.6,377.31a2.19,2.19,0,1,1-2.19-2.18A2.19,2.19,0,0,1,1228.6,377.31Z"/><circle class="cls-42" cx="1293.62" cy="100.22" r="2.18"/><polygon class="cls-43" points="1399.68 740.23 1347.04 740.23 1333.02 728.55 1269.38 728.55 1243.22 698.65 1209.14 698.65 1209.14 696.52 1244.19 696.52 1270.35 726.42 1333.79 726.42 1347.8 738.11 1398.87 738.11 1439.21 702.4 1440.62 703.99 1399.68 740.23"/><path class="cls-44" d="M1397.52,719.34h-101v-.27l-.18-.16a.19.19,0,0,0,0,.17c-.43-1.34-21.1-22.34-34.93-36.17h-84.56l-.08-.08-54.11-54.58h-89.95l-14,13.54H953.12v-.53h65.3l14-13.55h90.39l.08.08L1177,682.37h84.56l.08.08c.09.09,9,9,17.68,17.86,14.16,14.43,16.91,17.64,17.38,18.5h100.58l17.76-18.22h18.8v.54h-18.58Z"/><polygon class="cls-45" points="1432.44 678.97 1321.03 678.97 1293.77 649.83 1294.55 649.11 1321.49 677.9 1432.44 677.9 1432.44 678.97"/><polygon class="cls-46" points="1331.96 696.78 1290.45 696.78 1252.14 658.01 1115.69 658.01 1088.12 686.97 1043.29 686.97 1043.29 684.85 1087.21 684.85 1114.78 655.88 1253.03 655.88 1291.34 694.66 1331.11 694.66 1373.16 654.95 1432.91 654.95 1432.91 657.07 1374 657.07 1331.96 696.78"/><polygon class="cls-47" points="1432.44 646.26 1387.37 646.26 1362.14 620.1 1301.87 620.1 1282.24 641.12 1168.96 641.12 1168.96 640.06 1281.78 640.06 1301.41 619.04 1362.6 619.04 1387.82 645.2 1432.44 645.2 1432.44 646.26"/><polygon class="cls-48" points="1432.91 623.84 1399.98 623.84 1379.89 602.82 1290.69 602.82 1264.52 578.99 1181.11 578.99 1181.11 577.93 1264.93 577.93 1291.1 601.75 1380.35 601.75 1400.44 622.78 1432.91 622.78 1432.91 623.84"/><polygon class="cls-49" points="1225.85 636.18 1187.25 636.18 1108.77 560.03 989.18 560.03 954.27 527.05 954.27 463.88 935.36 442.77 905.94 442.77 905.94 438.52 937.25 438.52 958.52 462.25 958.52 525.22 990.88 555.78 1110.49 555.78 1188.97 631.93 1224.19 631.93 1262.97 596.42 1431.98 596.42 1431.98 600.67 1264.62 600.67 1225.85 636.18"/><polygon class="cls-50" points="1074.38 613.99 997.48 613.99 965.79 582.3 965.79 420.11 931.19 387.26 881.46 387.26 881.46 386.2 931.62 386.2 931.77 386.35 966.85 419.65 966.85 581.86 997.92 612.93 1073.94 612.93 1136.26 550.17 1273.27 550.17 1273.43 550.33 1304.65 582.43 1433.04 582.43 1433.04 583.5 1304.2 583.5 1304.05 583.33 1272.82 551.23 1136.7 551.23 1074.38 613.99"/><polygon class="cls-51" points="1432.32 570.65 1360.55 570.65 1313.18 522.94 1167.31 522.94 1128.46 483.75 1017.22 483.75 1017.22 479.5 1130.23 479.5 1169.08 518.69 1314.95 518.69 1362.32 566.4 1432.32 566.4 1432.32 570.65"/><polygon class="cls-52" points="1207.49 622.08 1152.08 622.08 1113.91 583.9 987.12 583.9 963.95 560.05 939.52 560.05 939.52 557.92 964.85 557.92 988.02 581.78 1114.79 581.78 1152.96 619.95 1206.61 619.95 1287.38 538.16 1322.89 538.16 1340.82 554.86 1431.98 554.86 1431.98 556.98 1339.98 556.98 1322.06 540.28 1288.26 540.28 1207.49 622.08"/><polygon class="cls-53" points="1085.08 546.21 1026.13 546.21 993.8 514.43 923.56 514.43 923.56 512.3 994.67 512.3 1027 544.09 1084.2 544.09 1120.91 507.38 1325.06 507.38 1351.36 533.13 1435.31 533.13 1435.31 535.25 1350.49 535.25 1324.19 509.5 1121.79 509.5 1085.08 546.21"/><polygon class="cls-54" points="1434.05 516.11 1364.11 516.11 1327.77 478.09 1235.05 478.09 1235.05 477.02 1328.22 477.02 1364.56 515.05 1434.05 515.05 1434.05 516.11"/><polygon class="cls-55" points="1436.59 460.47 1392.77 460.47 1392.69 460.38 1347.47 409.31 1245.69 409.31 1245.61 409.23 1221.59 384.8 1041.79 384.8 1011.41 415.71 915.9 415.71 915.9 415.18 1011.19 415.18 1041.57 384.26 1221.81 384.26 1221.89 384.34 1245.91 408.78 1347.71 408.78 1347.79 408.87 1393.01 459.94 1436.59 459.94 1436.59 460.47"/><polygon class="cls-56" points="1342.48 469.8 1188.54 469.8 1188.39 469.63 1143.78 422.37 1050.42 422.37 1007.79 465 861.85 465 861.85 463.94 1007.35 463.94 1049.98 421.3 1144.23 421.3 1144.39 421.47 1189 468.74 1342.04 468.74 1395.33 414.91 1436.59 414.91 1436.59 415.97 1395.78 415.97 1342.48 469.8"/><polygon class="cls-57" points="1075.91 526.56 1042.74 526.56 1042.74 526.03 1075.67 526.03 1104.98 493.52 1193.99 493.52 1241.96 446.62 1405.25 446.62 1405.33 446.69 1437.3 475.46 1436.95 475.86 1405.05 447.15 1242.17 447.15 1194.21 494.05 1105.22 494.05 1075.91 526.56"/><polygon class="cls-58" points="1051.71 503.91 919.71 503.91 900.21 483.32 901.75 481.86 920.62 501.78 1050.84 501.78 1150.5 403.72 1222.91 403.72 1235.7 388.26 1369.26 388.26 1383.65 398.92 1434.99 398.92 1434.99 401.05 1382.95 401.05 1368.56 390.39 1236.7 390.39 1223.91 405.84 1151.37 405.84 1051.71 503.91"/><polygon class="cls-59" points="1434.99 385.59 1298.37 385.59 1298.22 385.47 1281.32 371.74 1228.21 371.74 1228.21 370.67 1281.69 370.67 1298.75 384.53 1434.99 384.53 1434.99 385.59"/><polygon class="cls-60" points="1082.29 643.81 1045.41 643.81 1045.41 643.28 1082.07 643.28 1188.13 536.69 1241.95 536.69 1277.66 498.31 1313.48 498.31 1313.48 498.85 1277.89 498.85 1242.18 537.22 1188.35 537.22 1082.29 643.81"/><polygon class="cls-61" points="1405.15 481.52 1381.88 481.52 1361.63 461.27 1250.19 461.27 1220.35 428.76 1158.04 428.76 1125.53 395.71 1094.44 395.71 1094.44 391.46 1127.31 391.46 1159.82 424.51 1222.21 424.51 1252.06 457.02 1363.39 457.02 1383.64 477.27 1405.15 477.27 1405.15 481.52"/><circle class="cls-62" cx="1207.41" cy="697.48" r="2.18"/><circle class="cls-63" cx="1167.96" cy="640.33" r="2.18"/><circle class="cls-64" cx="1044.59" cy="643.55" r="2.18"/><path class="cls-65" d="M940.17,559a2.19,2.19,0,1,0-2.18,2.19A2.19,2.19,0,0,0,940.17,559Z"/><circle class="cls-66" cx="1041.99" cy="685.94" r="2.18"/><path class="cls-67" d="M953.34,641.54a2.19,2.19,0,1,0-2.18,2.19A2.19,2.19,0,0,0,953.34,641.54Z"/><path class="cls-68" d="M924.57,513.18a2.19,2.19,0,1,0-2.18,2.18A2.18,2.18,0,0,0,924.57,513.18Z"/><path class="cls-69" d="M907.09,440.59a3.68,3.68,0,1,0-3.67,3.68A3.67,3.67,0,0,0,907.09,440.59Z"/><path class="cls-70" d="M1095.52,393.63a3.68,3.68,0,1,0-3.68,3.68A3.67,3.67,0,0,0,1095.52,393.63Z"/><path class="cls-71" d="M1019,481.74a3.68,3.68,0,1,0-3.67,3.67A3.67,3.67,0,0,0,1019,481.74Z"/><circle class="cls-72" cx="860.39" cy="464.29" r="2.18"/><path class="cls-73" d="M882.22,386.77A2.19,2.19,0,1,0,880,389,2.19,2.19,0,0,0,882.22,386.77Z"/><path class="cls-74" d="M902.28,481.41a2.18,2.18,0,1,0-2.18,2.18A2.17,2.17,0,0,0,902.28,481.41Z"/><circle class="cls-75" cx="914.38" cy="415.3" r="2.18"/><circle class="cls-76" cx="1041.01" cy="526.29" r="2.18"/><path class="cls-77" d="M1181.43,578.38a2.18,2.18,0,1,0-2.18,2.18A2.18,2.18,0,0,0,1181.43,578.38Z"/><path class="cls-78" d="M1317.67,498.79a2.19,2.19,0,1,0-2.18,2.18A2.18,2.18,0,0,0,1317.67,498.79Z"/><circle class="cls-79" cx="1233.28" cy="477.69" r="2.18"/><path class="cls-80" d="M1228.6,371.3a2.19,2.19,0,1,0-2.19,2.18A2.19,2.19,0,0,0,1228.6,371.3Z"/><circle class="cls-81" cx="1293.62" cy="648.39" r="2.18"/><circle class="cls-82" cx="951.16" cy="107.07" r="11.59"/><circle class="cls-83" cx="1179.05" cy="170.64" r="11.59"/><circle class="cls-84" cx="1015.16" cy="266.93" r="11.59" transform="translate(-24.88 408.8) rotate(-22.5)"/><circle class="cls-85" cx="1091.7" cy="393.2" r="11.59"/><circle class="cls-86" cx="1041.97" cy="686.4" r="11.59"/><circle class="cls-87" cx="1179.21" cy="580.17" r="11.59"/><circle class="cls-88" cx="903.6" cy="440.93" r="11.59"/><polygon class="cls-89" points="124.22 696.53 159.27 696.53 159.27 698.65 125.18 698.65 99.02 728.55 35.39 728.55 21.37 740.23 -31.27 740.23 -31.57 739.96 -72.22 703.99 -70.81 702.4 -30.47 738.11 20.6 738.11 34.62 726.43 98.06 726.43 124.22 696.53"/><path class="cls-90" d="M245.59,627.72H336l.08.07L350,641.26h65.29v.53H349.77l-.08-.07-13.93-13.47H245.81l-54.19,54.66H107.06c-13.84,13.83-34.5,34.83-34.93,36.17a.21.21,0,0,0,0-.17l-.17.13v.3h-101l-.08-.08-17.67-18.13H-65.44v-.54h18.8l.08.08,17.67,18.14H71.69c.47-.86,3.22-4.07,17.38-18.5,8.72-8.89,17.6-17.77,17.69-17.86l.08-.08H191.4Z"/><polygon class="cls-91" points="73.86 649.11 74.63 649.83 47.38 678.97 -64.04 678.97 -64.04 677.9 46.92 677.9 73.86 649.11"/><polygon class="cls-92" points="-64.5 654.95 -4.75 654.95 37.29 694.66 77.07 694.66 115.38 655.88 253.63 655.88 281.19 684.85 325.12 684.85 325.12 686.97 280.28 686.97 252.72 658.01 116.27 658.01 77.96 696.78 36.45 696.78 -5.6 657.07 -64.5 657.07 -64.5 654.95"/><polygon class="cls-93" points="5.81 619.04 67 619.04 67.16 619.21 86.62 640.06 199.45 640.06 199.45 641.13 86.16 641.13 86 640.96 66.54 620.1 6.26 620.1 -18.96 646.26 -64.04 646.26 -64.04 645.2 -19.42 645.2 5.81 619.04"/><polygon class="cls-94" points="103.47 577.93 187.3 577.93 187.3 578.99 103.88 578.99 77.72 602.82 -11.49 602.82 -31.58 623.84 -64.5 623.84 -64.5 622.78 -32.03 622.78 -11.94 601.75 77.31 601.75 103.47 577.93"/><polygon class="cls-95" points="431.15 438.52 535.06 438.52 535.06 442.77 433.05 442.77 414.14 463.88 414.14 527.05 379.22 560.03 259.64 560.03 181.16 636.18 142.56 636.18 103.79 600.67 -63.57 600.67 -63.57 596.42 105.44 596.42 144.21 631.93 179.43 631.93 257.92 555.78 377.53 555.78 409.89 525.22 409.89 462.25 431.15 438.52"/><polygon class="cls-96" points="436.79 386.2 587.8 386.2 587.8 387.26 437.21 387.26 402.62 420.11 402.62 582.3 370.93 613.99 294.02 613.99 293.87 613.83 231.71 551.23 95.58 551.23 64.2 583.5 -64.63 583.5 -64.63 582.43 63.76 582.43 95.14 550.17 232.15 550.17 232.31 550.33 294.47 612.93 370.49 612.93 401.56 581.86 401.56 419.65 401.72 419.49 436.79 386.2"/><polygon class="cls-97" points="238.18 479.5 351.19 479.5 351.19 483.75 239.95 483.75 201.1 522.94 55.23 522.94 7.86 570.65 -63.91 570.65 -63.91 566.4 6.09 566.4 53.46 518.69 199.32 518.69 238.18 479.5"/><polygon class="cls-98" points="45.51 538.16 81.03 538.16 81.34 538.47 161.8 619.95 215.45 619.95 253.62 581.78 380.39 581.78 403.56 557.92 428.89 557.92 428.89 560.05 404.46 560.05 381.29 583.9 254.5 583.9 216.33 622.08 160.91 622.08 160.6 621.76 80.14 540.28 46.35 540.28 28.42 556.98 -63.57 556.98 -63.57 554.86 27.59 554.86 45.51 538.16"/><polygon class="cls-99" points="43.34 507.38 247.5 507.38 284.2 544.09 341.41 544.09 373.73 512.31 444.85 512.31 444.85 514.43 374.61 514.43 342.28 546.21 283.32 546.21 246.62 509.5 44.21 509.5 17.91 535.25 -66.9 535.25 -66.9 533.13 17.05 533.13 43.34 507.38"/><polygon class="cls-100" points="40.18 477.02 133.36 477.02 133.36 478.09 40.64 478.09 4.3 516.11 -65.64 516.11 -65.64 515.05 3.85 515.05 40.18 477.02"/><polygon class="cls-101" points="146.6 384.26 326.84 384.26 326.92 384.35 357.22 415.18 452.5 415.18 452.5 415.7 357 415.7 356.92 415.63 326.62 384.8 146.82 384.8 122.72 409.31 20.94 409.31 -24.36 460.47 -68.18 460.47 -68.18 459.94 -24.6 459.94 20.7 408.78 122.5 408.78 146.6 384.26"/><polygon class="cls-102" points="-68.18 414.91 -26.93 414.91 26.37 468.74 179.41 468.74 224.17 421.31 318.42 421.31 361.06 463.94 441.31 463.94 441.31 465 360.62 465 317.98 422.37 224.63 422.37 179.86 469.8 25.93 469.8 -27.37 415.97 -68.18 415.97 -68.18 414.91"/><polygon class="cls-103" points="-36.84 446.62 126.45 446.62 126.53 446.69 174.41 493.52 263.43 493.52 263.5 493.61 292.74 526.03 325.66 526.03 325.66 526.56 292.5 526.56 292.42 526.47 263.19 494.05 174.2 494.05 174.12 493.97 126.23 447.15 -36.64 447.15 -68.54 475.86 -68.89 475.46 -36.84 446.62"/><polygon class="cls-104" points="-0.85 388.26 132.7 388.26 145.49 403.72 217.91 403.72 218.22 404.02 317.57 501.78 447.78 501.78 466.65 481.86 468.2 483.32 448.7 503.91 316.7 503.91 316.39 503.6 217.04 405.85 144.49 405.85 131.7 390.39 -0.15 390.39 -14.54 401.05 -66.59 401.05 -66.59 398.92 -15.24 398.92 -0.85 388.26"/><polygon class="cls-105" points="86.71 370.67 140.2 370.67 140.2 371.74 87.09 371.74 70.04 385.59 -66.59 385.59 -66.59 384.53 69.66 384.53 86.71 370.67"/><polygon class="cls-106" points="54.93 498.31 90.75 498.31 90.83 498.4 126.46 536.69 180.28 536.69 180.36 536.76 286.34 643.28 323 643.28 323 643.81 286.11 643.81 286.04 643.73 180.06 537.22 126.23 537.22 126.15 537.13 90.52 498.85 54.93 498.85 54.93 498.31"/><polygon class="cls-107" points="241.1 391.46 273.97 391.46 273.97 395.71 242.88 395.71 210.37 428.76 148.06 428.76 118.21 461.27 6.78 461.27 -13.48 481.52 -36.74 481.52 -36.74 477.27 -15.24 477.27 5.02 457.02 116.35 457.02 146.19 424.51 208.59 424.51 241.1 391.46"/><circle class="cls-108" cx="160.99" cy="697.48" r="2.18"/><path class="cls-109" d="M198.26,640.33a2.19,2.19,0,1,1,2.19,2.18A2.18,2.18,0,0,1,198.26,640.33Z"/><circle class="cls-110" cx="323.82" cy="643.55" r="2.18"/><path class="cls-111" d="M428.24,559a2.18,2.18,0,1,1,2.18,2.19A2.18,2.18,0,0,1,428.24,559Z"/><path class="cls-112" d="M324.24,685.94a2.18,2.18,0,1,1,2.18,2.19A2.18,2.18,0,0,1,324.24,685.94Z"/><circle class="cls-113" cx="417.25" cy="641.54" r="2.18"/><circle class="cls-114" cx="446.02" cy="513.18" r="2.18"/><path class="cls-115" d="M533.91,440.59a3.68,3.68,0,1,1,3.68,3.68A3.67,3.67,0,0,1,533.91,440.59Z"/><path class="cls-116" d="M272.89,393.63a3.68,3.68,0,1,1,3.67,3.68A3.67,3.67,0,0,1,272.89,393.63Z"/><path class="cls-117" d="M349.42,481.74a3.68,3.68,0,1,1,3.68,3.67A3.68,3.68,0,0,1,349.42,481.74Z"/><circle class="cls-118" cx="442.77" cy="464.29" r="2.18"/><path class="cls-119" d="M587,386.77a2.19,2.19,0,1,1,2.19,2.18A2.19,2.19,0,0,1,587,386.77Z"/><circle class="cls-120" cx="468.31" cy="481.41" r="2.18"/><path class="cls-121" d="M451.84,415.3a2.19,2.19,0,1,1,2.19,2.18A2.19,2.19,0,0,1,451.84,415.3Z"/><circle class="cls-122" cx="327.4" cy="526.29" r="2.18"/><circle class="cls-123" cx="189.16" cy="578.38" r="2.18"/><path class="cls-124" d="M50.74,498.79A2.19,2.19,0,1,1,52.92,501,2.18,2.18,0,0,1,50.74,498.79Z"/><circle class="cls-125" cx="135.12" cy="477.69" r="2.18"/><path class="cls-126" d="M139.81,371.3a2.19,2.19,0,1,1,2.18,2.18A2.18,2.18,0,0,1,139.81,371.3Z"/><circle class="cls-127" cx="74.78" cy="648.39" r="2.18"/><polygon class="cls-128" points="-31.27 8.38 21.37 8.38 35.39 20.06 99.02 20.06 125.18 49.96 159.27 49.96 159.27 52.09 124.22 52.09 98.06 22.19 34.62 22.19 20.6 10.51 -30.47 10.51 -70.81 46.21 -72.22 44.62 -31.27 8.38"/><path class="cls-129" d="M-29.11,29.27h101v.27l.17.16a.21.21,0,0,0,0-.17c.43,1.35,21.09,22.34,34.93,36.18h84.56l.08.07,54.11,54.59h89.95l14-13.55h65.51v.53H350L336,120.9H245.59l-.08-.08L191.4,66.24H106.84l-.08-.08c-.09-.09-9-9-17.69-17.86C74.91,33.88,72.16,30.66,71.69,29.8H-28.89L-46.64,48h-18.8v-.53h18.58Z"/><polygon class="cls-130" points="-64.04 69.65 47.38 69.65 74.63 98.78 73.86 99.5 46.92 70.71 -64.04 70.71 -64.04 69.65"/><polygon class="cls-131" points="36.45 51.83 77.96 51.83 116.27 90.61 252.72 90.61 280.28 61.64 325.12 61.64 325.12 63.77 281.19 63.77 253.63 92.73 115.38 92.73 77.07 53.95 37.29 53.95 -4.75 93.66 -64.5 93.66 -64.5 91.54 -5.6 91.54 36.45 51.83"/><polygon class="cls-132" points="-64.04 102.35 -18.96 102.35 6.26 128.51 66.54 128.51 86.16 107.49 199.45 107.49 199.45 108.55 86.62 108.55 67 129.57 5.81 129.57 -19.42 103.41 -64.04 103.41 -64.04 102.35"/><polygon class="cls-133" points="-64.5 124.77 -31.58 124.77 -11.49 145.8 77.72 145.8 103.88 169.62 187.3 169.62 187.3 170.68 103.47 170.68 77.31 146.86 -11.94 146.86 -32.03 125.84 -64.5 125.84 -64.5 124.77"/><polygon class="cls-134" points="142.56 112.43 181.16 112.43 259.64 188.58 379.22 188.58 414.14 221.56 414.14 284.73 433.05 305.84 462.47 305.84 462.47 310.09 431.15 310.09 409.89 286.36 409.89 223.39 377.53 192.83 257.92 192.83 179.43 116.68 144.21 116.68 105.44 152.19 -63.57 152.19 -63.57 147.94 103.79 147.94 142.56 112.43"/><polygon class="cls-135" points="294.02 134.62 370.93 134.62 402.62 166.31 402.62 328.51 437.21 361.35 486.94 361.35 486.94 362.41 436.79 362.41 436.64 362.27 401.56 328.96 401.56 166.75 370.49 135.68 294.47 135.68 232.15 198.44 95.14 198.44 94.98 198.28 63.76 166.18 -64.63 166.18 -64.63 165.12 64.2 165.12 64.36 165.28 95.58 197.38 231.71 197.38 294.02 134.62"/><polygon class="cls-136" points="-63.91 177.96 7.86 177.96 55.23 225.67 201.1 225.67 239.95 264.86 351.19 264.86 351.19 269.11 238.18 269.11 199.32 229.92 53.46 229.92 6.09 182.21 -63.91 182.21 -63.91 177.96"/><polygon class="cls-137" points="160.91 126.54 216.33 126.54 254.5 164.71 381.29 164.71 404.46 188.56 428.89 188.56 428.89 190.69 403.56 190.69 380.39 166.83 253.62 166.83 215.45 128.66 161.8 128.66 81.03 210.46 45.51 210.46 27.59 193.75 -63.57 193.75 -63.57 191.63 28.42 191.63 46.35 208.33 80.14 208.33 160.91 126.54"/><polygon class="cls-138" points="283.32 202.4 342.28 202.4 374.61 234.18 444.85 234.18 444.85 236.31 373.73 236.31 341.41 204.53 284.2 204.53 247.5 241.24 43.34 241.24 17.05 215.49 -66.9 215.49 -66.9 213.36 17.91 213.36 44.21 239.11 246.62 239.11 283.32 202.4"/><polygon class="cls-139" points="-65.64 232.5 4.3 232.5 40.64 270.53 133.36 270.53 133.36 271.59 40.18 271.59 3.85 233.56 -65.64 233.56 -65.64 232.5"/><polygon class="cls-140" points="-68.18 288.14 -24.36 288.14 -24.28 288.23 20.94 339.3 122.72 339.3 122.8 339.38 146.82 363.82 326.62 363.82 357 332.9 452.5 332.9 452.5 333.44 357.22 333.44 326.84 364.35 146.6 364.35 146.52 364.27 122.5 339.83 20.7 339.83 20.62 339.74 -24.6 288.67 -68.18 288.67 -68.18 288.14"/><polygon class="cls-141" points="25.93 278.81 179.86 278.81 180.02 278.98 224.63 326.25 317.98 326.25 360.62 283.61 506.56 283.61 506.56 284.67 361.06 284.67 318.42 327.31 224.17 327.31 224.02 327.14 179.41 279.88 26.37 279.88 -26.93 333.7 -68.18 333.7 -68.18 332.64 -27.37 332.64 25.93 278.81"/><polygon class="cls-142" points="292.5 222.05 325.66 222.05 325.66 222.58 292.74 222.58 263.43 255.09 174.41 255.09 126.45 301.99 -36.84 301.99 -36.92 301.93 -68.89 273.15 -68.54 272.75 -36.64 301.46 126.23 301.46 174.2 254.56 263.19 254.56 292.5 222.05"/><polygon class="cls-143" points="316.7 244.71 448.7 244.71 468.2 265.29 466.65 266.75 447.78 246.83 317.57 246.83 217.91 344.89 145.49 344.89 132.7 360.35 -0.85 360.35 -15.24 349.69 -66.59 349.69 -66.59 347.56 -14.54 347.56 -0.15 358.22 131.7 358.22 144.49 342.77 217.04 342.77 316.7 244.71"/><polygon class="cls-144" points="-66.59 363.02 70.04 363.02 70.18 363.14 87.09 376.87 140.2 376.87 140.2 377.94 86.71 377.94 69.66 364.08 -66.59 364.08 -66.59 363.02"/><polygon class="cls-145" points="286.11 104.81 323 104.81 323 105.33 286.34 105.33 180.28 211.93 126.46 211.93 90.75 250.3 54.93 250.3 54.93 249.77 90.52 249.77 126.23 211.4 180.06 211.4 286.11 104.81"/><polygon class="cls-146" points="-36.74 267.09 -13.48 267.09 6.78 287.34 118.21 287.34 148.06 319.85 210.37 319.85 242.88 352.9 273.97 352.9 273.97 357.15 241.1 357.15 208.59 324.1 146.19 324.1 116.35 291.59 5.02 291.59 -15.24 271.34 -36.74 271.34 -36.74 267.09"/><circle class="cls-147" cx="160.99" cy="51.13" r="2.18"/><circle class="cls-148" cx="200.45" cy="108.28" r="2.18"/><path class="cls-149" d="M321.64,105.06a2.18,2.18,0,1,0,2.18-2.19A2.18,2.18,0,0,0,321.64,105.06Z"/><path class="cls-150" d="M428.24,189.58a2.18,2.18,0,1,0,2.18-2.19A2.18,2.18,0,0,0,428.24,189.58Z"/><path class="cls-151" d="M324.24,62.67a2.18,2.18,0,1,0,2.18-2.19A2.18,2.18,0,0,0,324.24,62.67Z"/><path class="cls-152" d="M415.07,107.07a2.18,2.18,0,1,0,2.18-2.19A2.18,2.18,0,0,0,415.07,107.07Z"/><path class="cls-153" d="M443.83,235.43a2.19,2.19,0,1,0,2.19-2.18A2.19,2.19,0,0,0,443.83,235.43Z"/><path class="cls-154" d="M461.32,308a3.68,3.68,0,1,0,3.67-3.67A3.67,3.67,0,0,0,461.32,308Z"/><path class="cls-155" d="M272.89,355a3.68,3.68,0,1,0,3.67-3.68A3.67,3.67,0,0,0,272.89,355Z"/><path class="cls-156" d="M349.42,266.87a3.68,3.68,0,1,0,3.68-3.67A3.68,3.68,0,0,0,349.42,266.87Z"/><path class="cls-157" d="M505.83,284.33a2.19,2.19,0,1,0,2.19-2.19A2.19,2.19,0,0,0,505.83,284.33Z"/><path class="cls-158" d="M486.18,361.84a2.19,2.19,0,1,0,2.19-2.18A2.19,2.19,0,0,0,486.18,361.84Z"/><path class="cls-159" d="M466.12,267.2a2.19,2.19,0,1,0,2.19-2.18A2.19,2.19,0,0,0,466.12,267.2Z"/><circle class="cls-160" cx="454.03" cy="333.31" r="2.18"/><path class="cls-161" d="M325.22,222.32a2.18,2.18,0,1,0,2.18-2.19A2.18,2.18,0,0,0,325.22,222.32Z"/><circle class="cls-162" cx="189.16" cy="170.24" r="2.18"/><path class="cls-163" d="M50.74,249.82a2.19,2.19,0,1,0,2.18-2.18A2.17,2.17,0,0,0,50.74,249.82Z"/><circle class="cls-164" cx="135.12" cy="270.92" r="2.18"/><path class="cls-165" d="M139.81,377.31a2.19,2.19,0,1,0,2.18-2.18A2.19,2.19,0,0,0,139.81,377.31Z"/><circle class="cls-166" cx="74.78" cy="100.22" r="2.18"/><circle class="cls-167" cx="417.25" cy="641.54" r="11.59"/><circle class="cls-168" cx="189.35" cy="577.98" r="11.59"/><circle class="cls-169" cx="353.25" cy="481.68" r="11.59"/><circle class="cls-170" cx="276.71" cy="355.41" r="11.59"/><circle class="cls-171" cx="326.44" cy="62.21" r="11.59"/><circle class="cls-172" cx="189.19" cy="168.44" r="11.59"/><circle class="cls-173" cx="464.81" cy="307.68" r="11.59"/><rect class="cls-1" y="-0.27" width="1369" height="766.2"/></g><polygon class="cls-174" points="679.34 768 1366.02 535.26 1092.41 711.15 679.34 768"/><polygon class="cls-175" points="1366.02 535 1366.13 656.44 1092.41 690.72 1366.02 535"/><polygon class="cls-176" points="1366.02 768 679.34 768 1366.02 636.07 1366.02 768"/></svg>