<svg id="Capa_1" data-name="Capa 1" xmlns="http://www.w3.org/2000/svg" viewBox="0 0 72 74.51"><defs><style>.cls-1{fill:#244b9a;}</style></defs><title>logocortoazul</title><path class="cls-1" d="M469.16,314.11c4.49-.23,8.91-.71,12.7-3.49a10.06,10.06,0,0,1,1.89-1.23c1.89-.8,3.2.26,4.39,1.39a3.73,3.73,0,0,1,1.2,3.9,4.59,4.59,0,0,1-2,2.28,28.93,28.93,0,0,1-8.22,3.82A32,32,0,0,1,469,322.43a14.77,14.77,0,0,1-2.81-.33c-1.52-.32-1.63-.63-1.1-3-2,2.67-3.51,5.4-5.88,8-.41-2.71,1.15-4.56,1.63-6.66a8.54,8.54,0,0,0,1.44-3.47l-1.65,3.24c-2.17.74-3.93-.49-5.76-1.23a30.29,30.29,0,0,1-11.69-8.29,35.06,35.06,0,0,1-8.63-18.31,34.67,34.67,0,0,1,3.2-20.67A34,34,0,0,1,451,257.37a34.92,34.92,0,0,1,13.63-4.48,34.2,34.2,0,0,1,25,6.58c1.56,1.12,1.66,2,.85,3.79a11.05,11.05,0,0,1-2.7,3.44,3.1,3.1,0,0,1-3.69.18A22.77,22.77,0,0,0,473.23,262a25.27,25.27,0,0,0-19.55,4.56,57.29,57.29,0,0,0-5.37,5.07,21,21,0,0,1,7.64,2.73c.09-.16.18-.24.17-.32-.05-.48-.95-.84-.4-1.31.38-.34,1.07-.21,1.63,0a90.87,90.87,0,0,1,18.57,10.79c1,.73,2,1.46,3,2.1a1.16,1.16,0,0,0,1.79-.4c1-1.59,1.19-3.42,1.69-5.16.76-2.66,1.74-5.09,4.92-5.66a2.62,2.62,0,0,1,1.27-.05,22.16,22.16,0,0,0,10.49.18,32.25,32.25,0,0,1,7.05-.49,6.49,6.49,0,0,1-3.83,1.39,11.2,11.2,0,0,0-7.21,3.43,62.43,62.43,0,0,0-4,5.58,16.94,16.94,0,0,0-3.21,10.31c0,4.08-2.34,7.08-5.39,9.53-3.74,3-8,5.2-11.86,8.07a16.46,16.46,0,0,0-1.66,1.57l-.28.39A.32.32,0,0,0,469.16,314.11Zm1.7-18.73a14.29,14.29,0,0,1-7.27-4.05,91.46,91.46,0,0,1-13.88-16.15c-2-3-2-3-3.66.24a25.41,25.41,0,0,0,15.88,36.37c1,.28,1.92.73,2.13,1.81C467,307.84,466.34,300.76,470.86,295.38Z" transform="translate(-434.13 -252.6)"/></svg>