<?xml version="1.0" encoding="UTF-8"?>
<!DOCTYPE svg PUBLIC "-//W3C//DTD SVG 1.1//EN" "http://www.w3.org/Graphics/SVG/1.1/DTD/svg11.dtd">
<!-- Creator: CorelDRAW 2019 -->
<svg xmlns="http://www.w3.org/2000/svg" xml:space="preserve" width="180.31mm" height="41.7579mm" version="1.1" style="shape-rendering:geometricPrecision; text-rendering:geometricPrecision; image-rendering:optimizeQuality; fill-rule:evenodd; clip-rule:evenodd"
viewBox="0 0 18707.37 4332.42"
 xmlns:xlink="http://www.w3.org/1999/xlink">
 <defs>
  <style type="text/css">
   <![CDATA[
    .fil0 {fill:#FEFEFE}
   ]]>
  </style>
 </defs>
 <g id="Layer_x0020_1">
  <metadata id="CorelCorpID_0Corel-Layer"/>
  <path class="fil0" d="M793.77 1184.49c48.64,17.69 252.65,329.91 282.45,373.68l302.49 370.93c151.4,173.63 506.38,547.46 761.06,568.58 -59.77,86.95 -87.66,120.62 -139.92,228.98 -94.02,194.98 -163.27,694.5 -262.67,847.29 -13.81,-165.77 -224.66,-68.86 -608.78,-350.87 -420.3,-308.56 -631.03,-766.85 -603.83,-1332.14 12.16,-252.73 146.44,-563.05 269.2,-706.45zm-791.56 605.53c0.22,334.04 -27.2,550.74 105.63,904.65 209.81,558.98 539.52,920.48 1066.93,1172.5 113.9,54.43 201.45,95.39 360.1,94.92 32.68,-61.73 64.34,-161.27 116.93,-201.09 -30.44,126.85 -202.78,344.52 -201.45,571.42 112.87,-28.26 259.26,-362.86 352.41,-437.09l-35.04 116.92c59.54,37.44 53.35,37.93 136.21,51.83 60.64,10.18 109.5,16.24 186.26,16.2 244.87,-0.13 1220.77,-225.88 1130.18,-556.56 -14.73,-53.77 -36.31,-97.03 -73.49,-130.34 -27.71,-24.86 -102.81,-78.74 -134.41,-85.74 -225.3,-49.87 -219.84,238.21 -821.31,266.72 -63.28,3 -130.84,20.27 -184.06,33.02 107.23,-149.52 477.44,-354.2 652.65,-473.37 768.71,-522.96 240.48,-663.05 679.5,-1306.92 118.97,-174.5 223.13,-340.8 423.36,-435.56 128.87,-60.98 364.94,-48.98 432.56,-140.34 -353.42,-2.41 -258.47,21.02 -525.01,47.92 -161.54,16.31 -227.6,18.8 -379.99,-2.21 -139.8,-19.27 -324.7,-103.6 -448.18,217.91 -86.32,224.71 -71.66,528.32 -261.77,391.18l-237.04 -166.97c-190.65,-135.72 -851.6,-572.23 -1094.58,-572.18 6.69,85.84 12.71,25.28 32.43,100.39 -142.73,-34.55 -247.31,-151.7 -452.63,-151.32 267.94,-378.45 751.46,-588.62 1244.98,-588.41 293.3,0.13 620.08,137.02 819.04,291.87 171.54,133.51 317.18,-36.19 400.63,-200.88 74.8,-147.63 -41.89,-204.91 -135.04,-266.67 -615.74,-408.3 -1336.36,-460.04 -2010.76,-161.29 -457.95,202.89 -795.88,595.27 -993.2,1043.96l-114.25 357.24c-7.93,36.81 -37.6,177.41 -37.58,198.3z"/>
  <path class="fil0" d="M14279.86 3355.84c1.06,-269.75 -31.3,-820 6.19,-1054.71 26.11,-163.53 84.93,-271.67 190.13,-348.45 101.32,-73.93 267.95,-95.78 403.37,-38.22 122.93,52.24 211.64,157.59 241.35,297.17 72.08,338.65 5.83,1128.11 58.48,1221.37 34.8,61.64 122.46,40.79 211.78,40.86 79.96,0.06 84.04,-56.08 85.4,-133.74 4.6,-260.99 -7.4,-216.17 -18.24,-422.04l17.15 -538.89c-0.96,-522.75 448.25,-575.43 688.37,-402.33 197.3,142.23 170.34,358.96 170.36,671.84 0,165.77 -9.22,711.33 34.04,807.88 60.21,25.99 150.75,17.65 233.45,15.64 73.47,-142.53 16.78,-253.08 17.55,-419.02l1.1 -842.25c0.37,-345.85 -473.94,-772.24 -982.2,-577.88 -158.96,60.79 -212.54,127.91 -331.16,205.48 -82.7,-39 -128.75,-94.42 -208.34,-143.25 -75.66,-46.43 -145.14,-72.25 -242.38,-94.26 -248.5,-56.25 -392.45,23.22 -559.48,103.66 -2.32,-3.61 -3.54,-9.33 -4.37,-12.12 -0.85,-2.83 -3.08,-8.9 -4.08,-12.45 -19.82,-70.97 -3.41,-101.22 -91.54,-110.03 -31.19,-3.12 -198.07,-6.87 -220.06,17.89 -39.09,44.02 -17.06,1313.24 -17,1548.97 0.06,299.92 -23.98,336.95 168.68,336.71 137.11,-0.17 150.84,26.93 151.45,-117.83z"/>
  <path class="fil0" d="M11064.55 1872.18c362.1,-88.7 704.11,171.94 781.82,532.95 85.08,395.28 -244.88,724.4 -534.01,777.91 -607.6,112.49 -1023.19,-596.45 -657.08,-1061.19 131.45,-166.86 222.79,-204 409.27,-249.68zm-809.51 2376.89c3.79,2.16 9.34,3.75 12.26,4.59l86.86 16.09c166.9,20.38 172.09,-10.44 171.95,-138.34l-3.1 -857.48c21.54,-46.24 78.43,29.92 112.97,55.59 429.65,319.09 1097.85,167.61 1368.52,-262.8 515.87,-820.34 -284.62,-1804.75 -1205.06,-1440.41 -127.35,50.41 -168.83,105.28 -271.14,160.25 -7.09,-111.08 4.34,-208.87 -90.6,-228.9 -4.7,-0.99 -9.1,-1.83 -14.29,-2.61 -203.87,-31.15 -219.65,40.56 -218.53,166.87l0.77 1886.46c0,128.39 -34.34,568.8 49.39,640.68z"/>
  <path class="fil0" d="M8253.2 1873.09c194.78,-41.4 376.66,48.13 497.41,142.61 367.77,287.72 295.73,882.89 -99.12,1099.49 -84.99,46.62 -150.08,58.54 -259.51,77.74 -575.05,100.93 -962.92,-663.19 -582.02,-1087.74 172.38,-192.14 266.57,-194.54 443.24,-232.1zm736.7 -69.58c-77.01,-38.63 -137.18,-97.28 -220.94,-142.81 -276.57,-150.35 -612.76,-132.83 -875.65,-10.96 -291.43,135.11 -545.5,463.78 -551.32,880.98 -8.7,622.81 567.8,1073.87 1178.05,957.93 222.46,-42.26 314.6,-136.06 470.55,-231.06 2.23,41.31 0.9,75.99 1.57,116.09 2.14,129.27 9.44,106.5 160.23,127.04 89.84,12.25 125.55,18.27 139.92,-47.15 4.07,-18.56 4.08,-27.08 5.02,-46.01 1.17,-23.43 -0.6,-60.26 -0.8,-85.24 -3.3,-421.19 25.98,-2454.64 -16.68,-2508.81 -56.19,-45.23 -202.21,-47.91 -269.33,-16.96 -53.71,112.7 -6.44,806.15 -20.63,1006.98z"/>
  <path class="fil0" d="M5628.47 2327.19c-2.04,-140.09 134.67,-272.3 218.23,-333.33 493.7,-360.56 1025.58,84.63 1022.74,334.59l-1240.97 -1.26zm-33.55 306.35c354.44,-18.24 1202.24,24.06 1440.6,-6.49 133.8,-17.16 298.71,60.55 129.17,-439.87 -59.74,-176.31 -178.06,-317.07 -304.36,-419.25 -664.44,-537.48 -1658.48,-12.76 -1586.82,863.14 32.89,401.89 315.87,690.04 636.35,811.07 343.43,129.69 826.41,43.02 1065.34,-252.32 272.28,-336.58 -90.99,-347.8 -136.64,-322.83 -19.97,10.91 -144.29,155.13 -182.05,189.28 -403.64,364.99 -1069.27,-28.02 -1061.58,-422.72z"/>
  <path class="fil0" d="M17713.65 1855.53c29.4,-0.53 72.06,0.3 101.22,2.91 346.26,30.88 665.58,434.38 506.47,469.55l-859.27 1.01c-222.26,0.36 -354.82,36.08 -331.42,-75.27 16.09,-76.61 143.53,-206.25 194.32,-247.47 118.39,-96.07 162.94,-101.34 288.3,-134.36l100.38 -16.36zm-32.69 1332.15c-345.79,1.65 -777.76,-572.35 -503,-572.86 509.47,-0.93 1019.86,-19.93 1528.3,14.93 7.44,-322.27 -17.79,-487.33 -223.64,-749.06 -106.11,-134.91 -392.92,-326.36 -633.32,-326.36l-168.36 0c-452.63,0 -791.65,371.46 -885.59,747.41 -229.1,916.91 918.02,1643.18 1673.35,882.14 276.55,-278.63 -63.86,-413.42 -194.66,-262.09 -181.41,209.89 -266.83,264.32 -593.1,265.88z"/>
  <path class="fil0" d="M13416.12 3030.86c-69.08,79.56 -194.62,163.99 -348.27,158.11 -149.94,-5.75 -273.23,-99.25 -337.53,-186.07 -85.3,-115.16 -83.69,-230.38 -83.5,-421.55 0.18,-170.71 32.82,-892.06 -33.71,-994.22 -43.58,-19.43 -90.7,-19.28 -152.85,-17.95 -203.41,4.34 -79.06,161.66 -106.91,348.09 -22.08,147.81 -23.77,470.43 -2.43,623.05 32.12,229.78 -38.48,656.19 407.75,872.07 464.34,224.64 687.68,-91.29 759.19,-20.18 39.5,39.28 34.31,503.28 -306.8,611.82 -264.25,84.09 -424.38,-120.9 -463.26,-126.09 -83.46,18.72 -182.44,114.98 -200.3,201.13 175.8,228.9 1073.69,548.52 1236.76,-427.49 61.04,-365.29 41.09,-1133.15 41.09,-1575.32 0,-347.28 91.31,-567.91 -249.32,-501.63 -24.92,4.85 -39.84,11.27 -46.39,37.52l-7.1 480.94c0,298.55 46.27,761.92 -106.43,937.77z"/>
  <path class="fil0" d="M4363.37 1773.19l0 622.95c-0.02,241.59 -73,912.43 16.72,1092.57 79.68,21.03 192.77,35.5 269.11,1.69 45.13,-94.11 16.17,-909.45 16.39,-1094.26 0.56,-460.38 371.31,-473.32 441.06,-519.33 78.33,-51.64 83.9,-288.09 -85.87,-290.24 -104.1,-1.32 -278.36,94.27 -351.78,131.93 -5.13,-57.81 -17.15,-91.67 -36.86,-129.65 -222.66,-54.46 -267.74,4.99 -268.77,184.33z"/>
  <path class="fil0" d="M9633.86 3489.02c33.28,23.89 232.39,44.02 269.36,-14.2 22.7,-35.76 34.66,-1804.56 -7.98,-1879.7 -43.83,-77.21 -247.84,-39.3 -261.53,-23.98 -34.64,38.79 -23.15,1521.1 -18.35,1819.7l18.5 98.18z"/>
  <path class="fil0" d="M13001.1 645.58c49.71,-21.61 -50.3,-4.05 51.7,-17.48 44.99,-5.92 86.68,6.36 119.55,30.3 172.07,125.28 95.89,344.93 -32.06,396.71 -126.74,51.28 -239.17,-47.33 -265.09,-133.36 -19.9,-66.02 -10.69,-135.71 14.45,-185.34 37.6,-74.23 78.9,-76.67 111.45,-90.82zm-135.09 -102.6l-17.18 -66.39 -168.83 -0.18 0.51 1009.93 185.33 1.14 0.61 -336.56c85.99,46.04 108.57,84.02 234.93,83.74 240.21,-0.52 418.24,-254.18 334.21,-519.61 -35.3,-111.48 -109.2,-197.4 -216.94,-237.71 -154.24,-57.73 -255.81,14.86 -352.64,65.63z"/>
  <path class="fil0" d="M11182.18 1049.62l-130.61 -139.68c-66.45,45.63 -77.27,78.72 -165.52,112.65 -467.21,179.7 -674.57,-498.9 -245.96,-633.05 197.57,-61.85 314.2,58.59 407.22,120.57l139.29 -130.18c-62.3,-43.46 -85.39,-77.02 -160.96,-117.16 -39.2,-20.82 -166.51,-72.23 -214.04,-72.29 -504.06,-0.57 -693.12,402.43 -544.69,746.63 118.35,274.5 447.51,364.27 704.25,254.87 91.28,-38.89 139.01,-92.79 211.03,-142.38z"/>
  <path class="fil0" d="M15121.99 897.68c-26.68,-137.2 69.69,-247.77 155.56,-266.39 139.91,-30.36 229.47,74.29 245.49,169.43 52.13,309.4 -351.2,353.29 -401.05,96.97zm-185.79 -67.34c-0.49,340.38 293.47,462.38 483.11,381.64 15.61,-6.65 30.94,-15.29 43.71,-23.64l47.31 -37.33c1.99,3.47 4.23,5.27 5,10.9l27.37 56.13 168.66 -0.07 0.11 -741.48 -168.77 -0.15 -27.93 56.36c-1.11,2.28 -3.25,7.52 -5.37,11.02 -248.58,-211.1 -572.77,-5.5 -573.19,286.62z"/>
  <path class="fil0" d="M17293.84 897.68c-23.63,-124.48 51,-238.8 142.45,-263.05 275.87,-73.14 330.8,365.47 102.51,425.31 -135.01,35.39 -227.21,-68.86 -244.96,-162.26zm201.91 337.06c208.07,-4.57 372.65,-175.23 372.31,-387.56 -0.32,-209.92 -175.31,-393.62 -388.7,-388.65 -489.94,11.43 -500.39,775.6 16.39,776.21z"/>
  <path class="fil0" d="M11637.79 645.51c46.23,-19.14 -49.47,-6.74 51.05,-17.18 80.38,-8.35 170.4,48.41 194.23,158.26 91.07,419.67 -534.01,322.22 -356.81,-49.77 32.39,-67.97 45.23,-63.86 111.53,-91.31zm-18.8 -169.54c-80.51,20.3 -122.09,1.55 -228.99,141.62 -200.84,263.15 19.9,689.09 389.3,608.26 371.81,-81.36 412.03,-634.76 12.35,-752.85 -24.88,-7.36 -46.55,-14.89 -88.36,-14.96 -11.51,-0.01 -34.58,2.06 -46.13,4.38l-38.17 13.55z"/>
  <path class="fil0" d="M13775.17 897.68c-56.22,-289.3 338.13,-384.01 383.89,-96.74 48.67,305.52 -333.2,357.61 -383.89,96.74zm-186 -67.34c-0.15,255.78 202.63,404.37 320.36,404.33 181.04,-0.07 335.19,-43.06 411.51,-245.25 121.18,-320.98 -183.92,-625.68 -501.45,-501.66 -112.91,44.09 -230.33,185.14 -230.42,342.58z"/>
  <path class="fil0" d="M18218.87 543.18c-51.76,-86.33 -7.02,-67.04 -201.17,-66.79l-0.16 741.26 186.09 0.12c-2.05,-225.72 -53.18,-569.08 152.97,-589.15 206.18,-20.06 147.66,302.47 149.24,588.84l185.54 0.55c0.17,-323.26 86.58,-721.6 -221.03,-757.57 -111.49,-13.04 -179.16,21.25 -251.47,82.74z"/>
  <path class="fil0" d="M16232.99 1234.58c150.57,0.39 289.56,-28.34 370.75,-152.04 -45.32,-30.7 -92.61,-65.84 -135.02,-100.33 -75.75,47.02 -265.93,178.96 -390.04,-14.32 -80.85,-125.89 -23.67,-339.85 221.66,-339.32 54.68,0.11 131.99,59.97 168.29,84.28l60 -41.48c32.51,-20.34 45.15,-26.75 74.73,-42.95 -260.21,-399.22 -937.45,-47.12 -693.96,407.44 61.58,114.95 167.16,185.28 323.58,198.71z"/>
  <path class="fil0" d="M14682.91 560.02l-27.41 -71.73c-1.09,-2.69 -2.79,-8.38 -5.15,-12.06l-151.68 0.11 -0.28 740.88 185.76 0.59c0.4,-304.36 -54.48,-570.18 123.53,-587.34 20.32,-1.96 26.28,27.47 62.7,-89.21 46.82,-149.99 -157.53,-85.89 -187.46,18.76z"/>
  <path class="fil0" d="M12394.83 560.24c0.03,-13.12 1.47,-36.24 -1.48,-48.45 -7.86,-32.4 -4.5,-17.76 -15.95,-35.34l-151.52 -0.09 -0.22 741.43 186.22 0.17c-1.56,-159.37 -50.09,-538.19 76.01,-580.17 103.23,-34.37 35.87,60.17 86.58,-31.4 85.79,-154.88 -29.69,-229.84 -179.64,-46.15z"/>
  <polygon class="fil0" points="16771.59,560.95 16771.63,1218.17 16906.46,1218.09 16956.56,1217.13 16957.37,476.5 16771.74,476.67 "/>
  <path class="fil0" d="M9699.84 1048.24c-49.86,21.53 -48.28,2.26 -71.62,65.05 -51.45,138.42 93.43,248 213.27,195.86 62.96,-27.38 87.47,-127.88 60.5,-190.55 -36.3,-84.32 -121.78,-105.05 -202.15,-70.36z"/>
  <path class="fil0" d="M17343.56 376.46c170.91,-1.53 131.25,-1.95 224.31,-96.99 58.43,-59.68 119.2,-106.34 164,-172.99l-236.55 -0.92c-14.35,61.42 -116.27,215.53 -151.76,270.9z"/>
  <path class="fil0" d="M16906.84 409.93c2.85,-2.75 7.4,-10.92 8.6,-8.22 0.09,0.22 58.84,-33.23 58.61,-143.82l-67.11 -84.89c-95.61,-38.95 -231.82,108.47 -108.07,209.27 47.4,38.61 31.96,26.96 107.96,27.66z"/>
 </g>
</svg>
