<svg id="Capa_1" data-name="Capa 1" xmlns="http://www.w3.org/2000/svg" viewBox="0 0 71.99 74.5"><defs><style>.cls-1{fill:#fff;}</style></defs><title>logo-corto-blanco</title><path class="cls-1" d="M35,61.51c4.49-.23,8.91-.71,12.7-3.49a10.14,10.14,0,0,1,1.88-1.23c1.9-.8,3.21.26,4.4,1.39a3.73,3.73,0,0,1,1.2,3.9,4.59,4.59,0,0,1-2,2.28A28.78,28.78,0,0,1,45,68.18a31.93,31.93,0,0,1-10.12,1.65,14.77,14.77,0,0,1-2.81-.33c-1.52-.32-1.63-.63-1.1-3-2,2.67-3.51,5.4-5.89,8-.4-2.71,1.16-4.56,1.63-6.66a8.3,8.3,0,0,0,1.4-3.44l-1.64,3.24c-2.17.74-3.93-.49-5.76-1.23A30.34,30.34,0,0,1,9,58.12,35.12,35.12,0,0,1,.4,39.79,34.72,34.72,0,0,1,3.61,19.12,34,34,0,0,1,16.89,4.77,34.87,34.87,0,0,1,30.52.29a34.21,34.21,0,0,1,25,6.58c1.56,1.12,1.66,2,.85,3.79a11.29,11.29,0,0,1-2.7,3.44,3.09,3.09,0,0,1-3.69.18,22.79,22.79,0,0,0-10.9-4.93,25.28,25.28,0,0,0-19.54,4.56A57.18,57.18,0,0,0,14.17,19a20.84,20.84,0,0,1,7.64,2.73c.09-.16.17-.24.17-.32-.05-.48-1-.84-.4-1.31.38-.34,1.07-.21,1.63,0A90.87,90.87,0,0,1,41.78,30.87c1,.73,2,1.46,3,2.1a1.16,1.16,0,0,0,1.63-.15,1,1,0,0,0,.16-.25c1-1.59,1.19-3.42,1.69-5.16.76-2.66,1.74-5.09,4.92-5.66a2.56,2.56,0,0,1,1.26-.05,22.2,22.2,0,0,0,10.5.18,32,32,0,0,1,7-.49,6.5,6.5,0,0,1-3.83,1.39A11.21,11.21,0,0,0,61,26.21a64.41,64.41,0,0,0-4,5.58A16.94,16.94,0,0,0,53.74,42.1c0,4.08-2.34,7.08-5.4,9.53-3.74,3-8,5.2-11.85,8.07a16.4,16.4,0,0,0-1.66,1.57l-.28.39a.32.32,0,0,0,.44-.08A.25.25,0,0,0,35,61.51Zm1.7-18.73a14.32,14.32,0,0,1-7.27-4.05A91,91,0,0,1,15.58,22.58c-2-3-2-3-3.66.24a25.39,25.39,0,0,0,10.61,34.3,24.89,24.89,0,0,0,5.27,2.07c1,.28,1.92.73,2.13,1.81,2.89-5.76,2.28-12.84,6.8-18.22Z" transform="translate(0 0)"/></svg>