<svg id="Capa_1" data-name="Capa 1" xmlns="http://www.w3.org/2000/svg" viewBox="0 0 200.45 205.5"><defs><style>.cls-1{opacity:0.1;}.cls-2{fill:#fff;}</style></defs><title>logoPlomo</title><g class="cls-1"><path class="cls-2" d="M670.41,457.48c-2.14,3.79-4.52,7.47-6.35,11.41-1.37,2.93-3.07,3.29-5.89,2.4-30.56-9.61-51.72-29.69-62.26-59.54-19.94-56.45,13.77-115,72.48-126.45,27.8-5.41,53.45,1,76.27,18.05,3.17,2.36,4,5.28,2,8.76a38.64,38.64,0,0,1-3.55,5.48c-6.57,7.91-8.51,8.16-16.92,2.48-30.44-20.54-73-14.55-94.89,13.34-.61.77-1.12,1.62-1.93,2.81,8.1,1.16,14.93,4.64,21.78,8.18,1.18-2.25-1.18-3.35-1-5.34,2.2-.66,4.07.67,5.94,1.46,18.21,7.64,34.81,18.07,50.71,29.67,2.35,1.71,4.79,3.3,7.15,5,2.85,2.05,4.93,1,6.44-1.68a22.13,22.13,0,0,0,2-4.79c1-3.36,1.67-6.78,2.58-10.15,2.8-10.44,9.08-16.31,19.27-13.85,12.76,3.08,24.45-.29,36.57-1.8,2.84-.36,5.73-.3,9.83-.49-4.94,3.1-9.49,3.44-13.76,4.19-9,1.57-16,5.79-21.1,13.36-3,4.46-6.28,8.74-9.31,13.2a40.63,40.63,0,0,0-7.38,23.8c.2,12.06-5.16,21.19-14.14,28.63-8.55,7.09-18.21,12.53-27.44,18.6a63.58,63.58,0,0,0-19.63,19.55c-4.54,7.28-9.53,14.27-14.38,21.35a8.46,8.46,0,0,1-4.51,3.82c2.45-11.5,8.33-20.75,12.47-30.68l1.53-3.58c2.84-5.14,4.41-10.72,5.75-16.37,3-12.69,5.24-25.68,13.86-36.24.08-.11-.17-.49-.31-.86-4.31.43-7.91-1.43-11.17-4-3.79-3-7.54-6-11.11-9.16-15.46-13.9-28.16-30.14-39.54-47.45-1.52-2.31-2.35-3.13-4.34-.18-17.84,26.39-15,63.79,6.76,87.15a73.59,73.59,0,0,0,36.64,21.55c2.72.69,4.2,1.86,2.45,4.77Z" transform="translate(-590.15 -283.44)"/><path class="cls-2" d="M686.78,475.46a22.87,22.87,0,0,1-2.62,0c-2.7-.32-6.62.94-7.8-1.28-1.47-2.75,1.71-5.48,3.31-7.93,3.35-5.14,7.84-9.34,12.23-13.59a10.38,10.38,0,0,1,6.26-2.77,57.87,57.87,0,0,0,29.44-12.09c3.84-3,7.48-3.33,11.55-.55,4.81,3.27,8.67,7.25,8.21,13.41-.29,3.89-3.77,6.08-6.81,8.06C724.22,469.38,706.19,474.67,686.78,475.46Z" transform="translate(-590.15 -283.44)"/></g></svg>